<mxfile host="Electron" modified="2023-05-05T17:34:11.183Z" agent="Mozilla/5.0 (X11; Linux x86_64) AppleWebKit/537.36 (KHTML, like Gecko) draw.io/21.1.2 Chrome/106.0.5249.199 Electron/21.4.3 Safari/537.36" etag="NcYk5zg6KQofweINSkQc" version="21.1.2" type="device">
  <diagram name="Page-1" id="CHdnkSvlKlz6ZMfvCh8M">
    <mxGraphModel dx="988" dy="592" grid="1" gridSize="10" guides="1" tooltips="1" connect="1" arrows="1" fold="1" page="1" pageScale="1" pageWidth="850" pageHeight="1100" math="0" shadow="0">
      <root>
        <mxCell id="0" />
        <mxCell id="1" parent="0" />
        <mxCell id="uAF1CDrNPhGtqPdshCHt-1" value="" style="shape=image;verticalLabelPosition=bottom;labelBackgroundColor=default;verticalAlign=top;aspect=fixed;imageAspect=0;image=data:image/png,iVBORw0KGgoAAAANSUhEUgAAAkwAAADdCAIAAADGo7pbAAAAA3NCSVQICAjb4U/gAAAgAElEQVR4nOzdZ0ATSRsH8GeTAKGXhCZIL6GDFEFBEAFPwS6g2BXB3nvXs91ZjrP33huiInZFsQF2lA4WOoQiLXXn/ZBguSNRFA9end83QzIz2cQ8md3J/AmEEHyTysrKb3sghmEYhv03KC09AAzDMAz7UZqjyPGuTjBlaDA1tduYOPgOWnj8Zc03Tg6lEDxe6tam1+5C8tseTuZuCtDW8lz9QgAAIMxY34U18TqvOQfYKN7rC0tCO9qYmZoam9n7jd6SVPmNR6YmepTf8qeC5h3dp1Bl/JwObhMvlTb/S9cCUPW9RV5Oo85869sFw7CfRjPN5Ci6I6PzC3OTTsy2T1nce/i+18396UJlhe+5sKYH89vHS9Dl3h7aeaumGQf1BWTh0RkTLhv9fjM1Ozsrabf/2z9Gr7zL+ZaWBJkvUut/ZPmpvr1i+hXXFb931SR+YC//GUK5w9z1vdIWzjtb8lMUbQzDvllznq6kyDEsu87aNt8pafOex3wAQOUPNob7uTi5uDi28xm6Nr6EBBC+/MPXP3LeSH8Xh17rjmwa/ZuLtfeShFoAQDVPd0X6Odna2VrZeg79+6F41oOKDw+1tWQ5dvDrPvN8WUPxRMV7+xiGrTs0b3CfQF8XB6/w/Wlc6aMjlLwDrW5s/8e3+0Y75cSMsgmZNru/p73H1L375wd72TkMPviaBABUmbwtwt/F0cXFydU/csej99I+Q8n83LeEdYf2WjIAVHXXSTvP7xtnRyNfb+1uFLjtTcMwyLfbg4wCt70mAYQFl5f293JxdXNzce087K+7bAQAUBMz1rHP1vSMbf1sLC0tWV5LH/DFY29kMJIPrxTC7AOrTuuNm95F7WOJ416fxPJaeT9x6/COViaGum367hXVi7pXh6cFuTk5uzo5ew9Ze7uk4WnUPts9JqC9i5ubq7NHjxmnMrkAAPy7sxycJ0StjQzpF+jt6hH8Z0K56IAJCq6tHNSpnZOrs6OL/5gdyVVI6mvaaONSBgMA8i4Tprok/LH18Y+fr2MY1or9s8glJCSc/ZeEhISvbpBgenQ0L3z6tJRE5ednDd9Fm3g+KTn50aVZKodHzz5bhkBGBr1MU59xflvvgrU7OFPP7grjR597wgdh1q4ZS18HHX/8IuXJiT6Fa+bszhACABDagw6kpKfdW+4p89nAKRTu7Utv+2w+E3sjfkP7R8ujbtRLHRgSqAREdM3ec+DVJ2f9Gu+UoFFqHld57IyZa3hyxR3XnecX2909fbMEoapL84Zt4oefTkxOTooZhzaHL7sjpVOaVZcuzEvzw2ZvPfsgu4Ivb2DvaKRKoxgGj+iUcexEulA0guwzJ9M6DulnSAH+/ahZV2z/upOUmJh0faVT5pX7xSQAKPXa+mhbLzWzMadfpqenp91Z7C4DACBhMJIOrxTC7HOnXzkH92r76ZtBxpRllHty2qpX3fclZ78pzDs1TIsA4DxcNXxJbvf99x4lPbq6rM3piDlnyxAAkIXHl6yuGn4+MTEx6cHxYTLXrr/iAgBQaZB/9bH+4qOnY2/GTpPfPe3vR3wA8u3BCZEXDJZff5T0KPHU0Op14ctu10l+TSU1LmkwDW/E34I7l589/Vjqc8cw7Cf3zyLHYrHu3LnzaYW7c+cOi8VqQovKKspQW1OLuA8u3KQHDu+uSwOgavkP7qYYfymRCwAUZTtHM1mmFkPe3MpUVlOLUV1RRQLVfML5l2fGWcgC0M07umoWvssXSuuHIGjWPQc4qxIACjYOppzCwqovnJoiFDuOHkQ9uiv+4zVDiZ1STZ0cVJU1NRUNrK2VFZhaitUVVST3wfmrtKDRfQ1lAWhtgkYGEVfOP5LyGaro9fvFmAUeddfXj+zEMm8/YOmFXC4AwQwcHlR+8uhjHgAIUk+dLuw6NEiTACAUleWL7p44HZ9awlX2mLJlaZCOlIm2xME0fnilqHmanGno2k7jszOVhKqaqqDKatjvweaKBACFQgEAfkpsXJn3yOFW8gAUDc9RIXq3Yu/WAQAho6xEpl48Epv85j1h0H/VtjFOcuJ2ZNr3DmpDBaBodvazK3jwMJ9E7FuxiYbBIzqqUwBkjfoP8q6+cfk5HyS9phIalziYBgrt3KxKnz7BF+Yw7FdG+8e/mUzm3LlzV61axWazAYDBYMydO5fJZH59i2RlRSWoqqoSNexyLsOaIf6cpmgw1XiZ5bUIAOh0OgBBocjIyRJAUAiSJAGgLvP8mpV777zl0mQpte+Kya5fupxCKCgpiD6YCYIARJIIQPolJarl4JEs3x3RfdwabpHUKUGXF41RVlaGAApBkCSJOOXl1cVxo5wviuaUJLeW71POB5BptDMAAJqmy4A5LgPmALco8cDs0ZERarcuTTZX8BoeKjvkyJ05rl4vT0Rz+2z0UQIAoDnNPLpVZeOepSHzMoXmAaMWrJjSWYcqoWVJg9GSdHglErKLS5C2juY/CipBEDQTB1vlT48oWc4ur7kyw91+vmgM/DqqbXklCYoUZr+/T/I2bt0xbvPYMnW3/lN+XxxmowgAQChqqMmKGlRUUoSa99UkyS+vAA2mhrhDmgZTuaq8UjTGxl5TCY1LHox4tBSGjha1rLiUBAO8iBjDflX/LHLwSZ0DgKZWOACy6O6dLEMXZw2KEpMhxy5hk2BOBQCSXVpBZzAVJVUhYeaOiVNvepw4t6+jBpV/d5bzyC9cY/smhHbviIC1S44z5IDa5E4JeU2matuhB+8tdZFc1j4iS5JOxla6DfU3pgLI6bgNHxu4OfRFugDMqTJ2g4cYdjtypYiWcEE59IiLeNYDdOOAyesDJgOP/fzEnOERCy2e7Oyh1KTBCDO+6jh8HYJGo332elEZWkz1HssTNwfQ/3lfika7QYt3DlpM1r659deY0RO2trs2gwUAqK6ykgcgC4CqKitBRVWFQlFgqEN5aTkJTCoACNil1eo6GtLqUKONSxnMZ0/im546hmE/icY/WkR1rskVTljz+uZfk/585TVhmC0N5Nx7+HFj98UVCQAERXEH4nh+PdzlJD0WVVVWUdvaWKlTgff2/Mk7Vbx67o84z6TYadQA4vLFTPIbOpVr36sr59zO8+94AKg+69jciPV3JS89IeBN7MoJM7ckl/IByLrci0evVdi6WMsAAFAM+g93fbhnzuarRoMGWIhma2TBqUn9F15jkwCyDIt2lgwKhSr+hCbkFGTLX+dWkgD8GnYVp+mDkYLK1NGmlBSVfsXRptkGBmpc3304ox4AuPkXf49YEldMAgA3aW3/8F2ZHACKYls7u7YKVGrDO4t3/0z0Gx4ALyfm3HM9d3c9CsHo3MP97al99ysRADf72MHbGr91t5f8vUFC4xIH04BkF5UImdr/nKJiGPYrkfgBwGQym1DhyMI9fdpotrEMmJ1gvODU9oH6FABCPXDVnlG8qEAXFxfXoI2C0XtXdVeT+L2a5jhkemD+Sj/fwL5D/6oasHiwzs15oX8/4pUcHW5raWnJ6rAgoe7B0k5WlpbWfbZkSr1aJx3NeugoJ2E1KaVTib9HU/b7fd9YytbeLo7tnDoMPwX+Qc4qEp8RodUv6vBU7bgxHcwMjUzsev1d1XfX9nAT0REnGN2HB+TEJrcb3LtNwwldXb/BPgWru7m6urm5eo1N9tqwqKui6E+y7kMnOj+fZt/W0NTed+KJN8ImD0YaRUdn8zfJT8q/okLKuczau6RtzOD2Du2c2vfbWubeq6MWBQDkHPsN1owd3tHFzc3Vrcc2malrw81FpZvQ6Gidt7BHJzenwF2yE/6a5EQDoOgP3rAtMGdO53auzu4DT+ks2DvPQ8psTFLjkgbToP5JUpqmk6MuLnIY9gsj8LZeLUSYvi5gYMHCu+t85Ft8KNmbgwKuBcefHqnfvAWB/2Ce2yhO1JP13rLN2u7XQOwzIzz+MDpyZ4nLf985hmGtBf6W2zI4mYd+P0QbGuHV4hUOAKimQ2f3ebdp7Y1v3ZBFGgQt8nvs+uSN6xI9Zo51xhUOw35puMj997iXp9nb9dyjPHPjWEtJiyf/Y8reC9b6PZy36PLPsq3X/VXTYix/X9VXG687wbBfGz5diWEYhv20vr3IYRiGYVgrh09XYhiGYT+tli1ywhfL2tFpNBqNRqNQKFQajUajyaiEnfkRvwP/PrwbE9qNudLYZr+8S6M0FUNONfeQBUlzrek0Go1KoVBoNBpNKfh4LQBUHugpT6HSZOnKWuYdByw+m/VNqQYAUPt8V7inCVNNTdPEM2JvivR9PwHIomvLetu1UVdV13MetCm5WrzP8ruLi3rZ66ooKqkbuIWtE+8oLWr/8eYwFwM1eTm6kpregCNl/zhfwD0VouK2Ou07fgqCYRj2NVCrUH24t5LNgkf8lh6HJMKcv7z0R1/mNvInsjI7OTGDTf6QfvkPZ1ko9j1a8+GGiv09lByWPOMLagseHZ3SnmEw+FTRN3Rdf3c6S7db1NMqofD90/VddWznJTb23BoIc7Z21feYd6uYT1a/+Ku7addNWUKEhLlb/DRsxkTn1JKC8sQV3mqG429wGjqIGaxhMPTEu3oJg+OcDFZ2XZUqaPrQMQzDmqDVnq7kXgpv47jozr2oYHs9hpqCYsD2IgQAqOzWyj6OxgaGbfWM3YbteCbakJcfP9HEYeLmVcO6deloZ2LhO/eKOEdMmHdhTjdHC0srloWlS/9V8eIJhfDduVldrQ3bGurrmXtPOJ7dsMkyqkzaMtLLXE9HS7ONTfc5Ma/5AAC8m9NsXRfcLzw0wEBHR0fHaPQ50fRJ+HKNr76Orpmjh/f8G59M8gR5cYt6O5mZWpqbWHgM3SiK70GF2/zVeq3YM7WPv7erhbFj2M6X3zP5oyrothuwdt9Mnei1Bz78NF74YpmTrNLAL0+E+YnHz3D6zRrroEKhKDuMnd6r6uTxR3wQZO8INGi/9FE9AIAwZ0d3fed592sAhK8O7Urttni+txaNULKdEpt1abwpBQAhk95rtizpaaxAUNXb9fvNnJ2TW42g5vRwQx3DYacqi6LHuRjp6ujouS16KAAAMv/8jM6mekY2Lj5DNz36Acm6GIZh/9LSVVbk3zM5Yfb6jkomNn4jD6ZWkwgJhUKEEOLdnWbGCNr9ToDIqvgpLOWA7fkkQoh3e7KRvMGAA7k8hASvN/mquK1OEyCEeDcnGNnNul+LECIrb68eNvNMvhAhVB0zVLvtsJgyEglLTg/WZw46U40QQmTF+eFtjcMOZ9cjxMs/N9pcxXdTrhA19Kvb+ExOkLrKVTn4ZMMUBglzt/ozbCdfZwsR4mbv6qVjPPZaDUJk8Y4AupL7wnsVJELV18aZaA6Jqf3icZE4kxP9i3dvuplK/+MNfxakruuiZxwZy/l3Q58hi3d2VfbdnCdsGPFfXsqB+8pJhIQFJ8JMHWffrealbehi4LP2BQchhCoP9lL1mbN1ZqCTqYEBy3v0zifvP5ugCTklTw6OtNbvte+NuElUfbi3ssfaLOEn96qJHamnN+BYgQCh2hdrfFRk8UwOw7AfrtXO5Ag1dTVBpU3E2kEspQ9RLyDjsepJ9rGh+lQgVNr7ONPy3hSKQucIQtl3SIiRDAC1jYODZtG7AhIACCUVhYL4w8eupxRzVLxm7/uzTxsKACgF7chI2RrEIIDC9PS24bx9W0YCAOf2iQuyfcYFm9ABZNr02JCYdXpU26YeIFR27ex947BIbw0KgKzJwBFd3l++8EScI2PXb2h7NQJA0b6dBSc//7t/e01RVlUS1lQ3hIZTWdOu5eVs6y5xg9CGMdbV1IK8glzhNj863X97EV1RHupqahEARbf/pq0dYyOGDBnxt9KSvVNs5QCArCqv4DyMfmi76npqzpP9AZlzQxYlfLgWWHWolyJd22XyM9+/N4RJ2e5f8PL23bpOwT10qQAKNoNC3b5mk2sMw7Dv02qLHBAEQTNzdvh8O0ZU8eTg3FCvds5u7u6dZl+pQx9+AEHIKyk0bAJJEIhECABoLgvP7e8riJ4TaKHd1m3AiqsFQgAAYXHCtsm93Ns5t3f3CFydyBe1gmpKSzkamg3ZQEBX01SjN/nH2mR5WTkwtZjiVmQYmiqV7ArJOTLfhaxgV8qoa0iMdpCAUFBShPo6joJ1UHh4kLV8XW0dKCqLImoI9S7TRmlcOlUcOHWAkXj7STl5Os0sdHKYnboMVcNt8gQ/9vWraQ0bfKoOjqnjVWSeGZI/s3PEWck/JierKqsV1dVEsReEqrpK633rYRj282jVnzSEzD+iXvj3Vwyak9Jxa3xy4oMHN1f4fnlPLLpp4Kyt55PelOacH0PdO2hmTDVATeycsHXlwUfuPXr44P65Gc7iKQWhpKkpV1ZcJt7IHtUWpKcX1Da1DlE0NBnwsRV+Wcl7DS3GjznMgvRbt8sc3J2+NHP7J0KdZa2V/TJDodOUTZsme8mlv8jRt7VSBgAAYe7eKRvR2LkO56f9fq9GdHcNlpXW+7Jy8aU/hEhEpVEJVJl8aM3BpGoAQkbV2HvcjN7EhZjExhagAgAARUVFqba8UlQbyZLCUryyEsOwH69VF7l/QZUVVYrmDubKBNS9OnDsoYBTz5FShci8I+HdZsSVkQCyTJarFZNKoRKAeJXldRpW9gZ0QFWJB86kNLRC9+oXyD+77cxbHoCw9Mb83zynXxKfUSTkFei1uVmFAgBhXVl5neROCaZ/X8/XR3fcqUAA3MyDu28wevRq1/yn5vgVqdFzI/6uDJkxyLDhRRSmRXU1shgfJ7HQNJBxGxiqEr1m67NqkqxM3rAmVm9QmBMNALgpf41Yzpu+589l2/6yPzly5uVyBAAy7QeHqZ7+fe39ciFZ9WjTlhs6AQEWVILOebxz0pQ1d0r4AJy3lw5fLrW0s2gkoFCEZt2xvWz80TPvBECW3919/BkuchiG/Qda+qKgyL8XnpDl+4KUO67LFn52v7rHf/e2MrB08/HvM+VIwuGhxlqskJ2pAt6dKSaGE27yEEKiRSJtx17nIoTI8rtrQ90szSxYlhYWTkFzz78VIITI8ltL/MwMbTr4dg1dcP72lqA2Og5jTuYLESLL70cN8TBr29ZA39ip77IrBR8WRvDS9gyy11RUUFHXNvVaeo8nXuWhra2tzVSWodDVtLW1tdsGHygmERK8u7ggyN7ExMLMhNVp9K6nolUtxTu7KnfZmk8ihBBZurubcudN7z5/cp/hJ86xkqNSqRSCIKhUKlWx/7EahFDF/h50gkKl0uSU2zj0mHUivf6TxwieL3WUURxw+ksLTxBCqO7l/khPY6aqKtOs86TjmVyEEKq+N8/ZsLd49QhZfmU8yyj0WL4QIYTq0w6P9zZhqKoxjTqM2il6SghVP909prOFpqqKipqO9W/Tjmd86LmRhSeIn3tyfIe2GpqGrA7Dt64ZqOW8PAUvPMEw7MfC23phGIZhP63/r9OVGIZhGNYEuMhhGIZhPy1c5DAMw7CfFi5yGIZh2E8LFzkMwzDsp9XSRY7M39KFLg7ZodFoNJqcyZTbfAAQPFrmoaejrSZP7/T3a7KFR8nLOjnFz0JbXY1h4BIW9eAL23EJ8y8t6etiYWpuZmrrO25fSu0nf0OlMcMMFHse+CRVHbHvrh/swTI1NzNhdRy+8WEF+oZOUcWDDcM6mukwmRoautZdp53Kadh0GqpPDGy/4JFA2qObgndzvKHZtLv8L99TGhy10zrxLo5k0pghx0Q7mXPPDmJ4rs9p6f9+GPY9mr/IlZWVNfERMu5/pvMEYtycqE4yAEBzXnQ/vyh9g79ss4+wqYSpfw0Zn9Rxz8vSirwbk9HfA2ddfi/53uTb3SMHx1hsSMzKzHp5uk/2zJDliXwAQNzyzOubw7uNj6n4tFyhiuhJwVvo8+IzMrMyrk3grgmeeammyZ3y7i4bvKJ04Lms0rLygnsLNaNHRex6I/psEqQ/TanHPxNp0DxH4mf+3Q2hwL+5+UDWf/H9Q9Lvl5p4eH/iFwNrBs1f5FatWtX0OvfVGo/aAVR578/eNvr6lg4dQ1dvnWyvH3mVByAxagcAABWItyf+0n8RYdrpE1m+U6d7MmmEvNnAmYOVzh27XQ+o6MwQU+uJ10RBOsVnhphYRl4sQyDMeZEm7+HvokYA0M38Oxu/e/GqGgHv6iyffiuTjOftmm736a4gZF7KqxqngC7aVACanp+fTcXLlEKhpE4lqcvJKm7j7m2pRADQjUP/unglqo8WBaD61DAT/6hXqX931dfR0WnjOCdBPANrPGyIc3qAuve8HfNDu3Z2tzKy6rHmgSgdFZXfXhFkpWfAaucZvOIW+8M3e276obHelgYGhnr6Vt3mxxWK/yAhJqmJUTuo/PaKIJaeAcvRo9/SlUNNjCfG8wGEqStdVUNPi9KEhOl/tFcJPlEPAIAqHvw92N3CxMLC1NJ9yMbEKnGua9JcG8NxF5/uHeFmqKmupOCyPEUI/EcL7DT7fUxyFTxZZK/Z97DkjTeh8lBvdd+Nj68u7sbSZajKq4qDfSV0CjWPtwztYG1hZWVpbtt5/JF0bsPhVXOdvH5OaHd/L3tLp5CNj2rEByzz+NQAW1MzSzNTq85j97+sAwAQpvzubDhs/abIIH+vdmam7mNPvhYVHlQWv6qfC8vCysrSwrH7nAvvxPWo9sXeMT5WpuaWpubt+i6/UfyNEzAZu14B5Tu33v88jhexE9aGtbcwtbAwMXPut/z6F1rn5ZyZ2c3O1NTSzMyu26yzr8VvOzL3Ly9m8JEXZ6Z4m2prKCsYT47nSzu8jXfa6GuKYZI0+8/Lhw0bNm3atNLS0q+6tzBvs6/SP7fG+Khifw9lr6jcD3+VELXDf7LQTs1nfSoHodrnawI05fVEO55IiNpBCCFEFu3r31a8R4lUnOgwdYfFDek26P2hXsruazIFCJEV1ybZWoy6UCrIOxJs7DQn4T1CCJGVcZFmNmNiC3iIrH662kffb1PmJxt7CLPWeij32F/xsfkH8x1NQ/Zn1yNUn7Wrj6Hz4mSulE4lHMbsbV0ZavYDFu+Oe5xf+9nB5JwbwrCZl/x5Hq2EsCFOdJgy3XrcxWIhQtyni51Uuu0uJhHiPZzN0gjYnMVDiJuzp4+OnMnUBB5CZOGubqrWMxKqEeK/3t5Nw3jybZ54NI3FJDUxaof3cDZLw39TJhchTtaOXtpyxlPv8BASvFrhohJySrS1iiBttZty/+N1CJEVMcP02wYfyOEixH93fJCRybjroiSjyoM9FQ1YnsEbH5ULECKFQhIhJMyO6sTw3yrecoZ7d7pF21EXqyUPBvET51gxzR0Cpp5/U48anpKkToV5W/w0e+wtEiKEeLmHJw+JSuI0HF5Z04jYMhIhfmaUt7rHn2kChPjPljlrdPj9UTVCqObZ6k4aDosei56pM53ZNSqlFiGy9Fiwltm0uzyEkOD50naGIy5UkgihumdbIiL3pgkQQvUJ0y01/da/qEVIWHZtoo1uyLGSpsfpcmNH6HRYfSXKt23o8TKSEx2m0XFdthCRZacG6hoNOZnHR0hQeHaEiVbwUSmtC16ubq/hOv9eBYnI90lLPbR8N4m3LuLGjdJuY+EatCy+iIcQEr0akg6vxE4bfU0xrHE/5Jocm83+QfO5xqN2yOJ7Cbn2ffpayAEo2EWM8mk4xSkhakf0N+1hJ9++PTFE60tb+PNqawXyivK806EKsu2Wp1AUFamiXBpCrcuqPQNTpg4dMmxhydj9SzoqAwAQql1/3xTwMMy0jYGeXoetqvOjws2kZRnItZ+9dUTRDJs2+nq6tvMrIjZNd5aV0mnjKCaRp+8fHqHzau8kPxNNgw4jNt4vlzZTkhA2BABUg6Ch/loUAFmWkzWt8F0RCeTbhDt5zv36mcgAyBqHDPIW74tN6Aw//ebB8o5KADR9Ly+T0jfvRN/+G41JamLUjqjT/v1NZQHkTMMG+8gTIOWV4iacuUjrM2GAsSwATb/PmD5E7JlEPgAAXU1dtrTNwHXj2qlTAQgKhQAAinFYpPfz/UcyhQBQf+fQaeqA8C5KUoZDqGmo1PA856wIMqBDw1OS1Ckhq6JMpsTsO/swt4owCos6MNmlYQ9tCsMv2I9BANCMA7qapiQkVoMwM/ZcuuuICCclAFC0GzHENfviJfHZQpr7wKE2CgCEuoOTQcm7AiEAEAoqiu+TThyMe5JXK2c/dvu24ZZUAP7Ts+dK/cZG2CoAUBg+YwfpX4uOr238yXwBohoNGt/p/uYDOR/mR5yE6Cv03hG99GgAVJ3uI3sqXb9wjyOpAWFObPRL5/CJ7moEEMrOY0Y6JUdfFp0xIdTUldkKQSvndtKWAQDRqyHh8ErutNHXFMMa96MWnrDZ7F27dn3dfXn3Z5hRCTG5LlvyJZ8JaTxqB1VVvAdVdVXRk5HXbaMhfloSonaaRlZJiVZfW08x8Q8f3b+dBr+2VqiorCTqQcFl/ASbeyeeuU0MtxV/jvGfre45+nnIlbyitwXFL9czNwRFRJdJLjhk7q4BIWfbH80tzssvyT3ierb/gF2vSamdNk7RvPuUv07cySgpfrTR/dXCftNjpVzDazxsCACAUFAUxwEBhUKQJEJAvq+oAlV1VdHNMqpqDdE+vDdX1kf85tLOpb17x4Hb0oQfG2kkJqmJUTv/6FRNTWqeEKpns6sLDw40NzIyMjIyMg87WsmpYvPEg6HpOTnpfN4dodlrTO+iQwef8qHm+qELWkNGuEq/+EsQBM3G2Z7+NZ0SmgN3xi1kPd84vL2+Nitg4r7nNR+a0WCK35yEkrISel9VTZLlpeUymlriZ0qoMhm0ijJROBNBUVBSED+QQkGIRABAMZ1w7Eyk+s0VwfY6ug695pzJ5gIAyS5jV8eOtxGNxfS3TbnU9+JWmo5QD5wQWrZz60NxxjyqKWNzmdoN+VEUhqY6r5wt8TsXyS4t595b2N7YyAUBEvgAACAASURBVMjIyMjYbclj2Rp2Q+oEQVGyb/evfbwbO7xSOm30NcWwRv2otwmDwQgPD/+6+8p+erqSe32cnsRBSYjaIRSVFaG6qlr0X5pTVPjxP3djUTtNRLO0MctLTec5hW/YPK+7VmZKhrK1jWiMqDhm5u+5oQsCn8yffVFUych31y+ksIKHu2pQAehGQQN9BNcvP5W8FrE64fxtZq9hPjoyADI6nQZ107hz6WG9tE4bUZd+cfvRh6L1l1RVVu85o93fv3iWJ7GiSwgbkoCirKoCleXi5Z11xcXvRRfqig5NHHpIflLMw+SHD+4e+sd89V8xSU2M2qGoqKlAJVu8SKeuqOi9+COVoBBIKBBfnaqvFa2pIRS0NFUNw09nvhZ5W1hWdLCfYkNjNBnav0qkok/EYOLYvoSCiwevWY8aYvnl5EDiH81I6ZTCcB2x6vDN1KLC5A1uT2eMjHrZkFNUWS5+c6IKdgWhqqZCoTC0GPzSEvHlPFRZWiZgfMgjbBStjc+EqNN3s0rfxS9ueyl83P4CEqia2loafXelicfyJr+05OKYJkf+fiDnFjla68TGy7WyBAAQSprMT1KoyLKScjpTU0nS1w6qprYm3efPx7niweSVlD5Y4PChrtFo/341oJHDK73Txl5TDGvEDylyDAZj7ty5TCbzu1uiUinA5fIavjJKiNqhtHF11X0eG/tGAFD7bMe+Ow2XuRuN2mloq/jgABOTgYekrDYQj8G8f5hN/F9r77KFqDZt76rDwuAhnegAIHyzf8y0tEG7oxZv3NHj4YSxR/NIAIq2jY3a89iYLA4AkOy7529Xs+zNJQbQgKKVrUHu5Zjn1QgA1bw4f+2tiR1LTnKnjZKpvrc5MnxudFYNCcAvfbjn2COGs6shFQCAoCvIleVkV5AA/OqySg6A5LChxlEMPDx0Hp04ls4BVPNs18F74gpTW1Eh1Lax15UBYfH1g7FvBJx6Kcs4mxi1QzHo0FE3+cTR1HpANU93HrwvvjuFqatNZL7K4ANAzaMzceLzenId+wdxTm8+84YHgOoyDkwZvDK+SvorK+M4cpTB+XVTtj/0DA+W/MVKCkmdcu8v7xa2OY0DQFEydHQ0VKRSG5ony64cvVgkBKh9cup8rkMndyWgmgX1tkret/NpLQDUPN114JF170ATiTUXVcbNCIg48k4AQFUzdbbTlaVSCAJoDn16MS9v3ZNaBwDcdzHzB88+17AQSPhqhbOsku+mpvwWgGIyZFyH+9G3ROck6Z59u3HP7jhXIAAQFJzbdY7Xra+nxBhDilFQX/uknZuSqxCAoCR+1YixB79htWbTOsUwSZr9Kl8TVp2gLy48EbzaHGigosLU1tbz+eOFQFLUDhIWxs3ubKytz3LuPGLjlkjpUTsiZP7WLnJyftsKv+KiNf/12RkBFpqqqgxD9xE7ntYghBD35V++bb3XpnARQgjVJS121QvYlM5DiGTfixrW0cLQyNTE0NghaM7ZXB5CiHdvnqMWg8FgqCvKELLKGgyGJmvqTR5CqOb53nG+1kaGJqZGRjZdxh94WSu5U4nqM0/N7uGop66iqqquw/Ids+NRVcPzqk1e39NCXUFRldGG1XPjS2lhQ5zoMHXHpc9FB4lzbgjDftFTPkKILL48z8+EydS3cOn/x4YxliaT4nkICfNjJnkYGdl7+nUb+ueNq8s9tPRd516tlhST1NSoHbLk2sIAUyZT38IlZM3a4QZmUxN4CCGyMmFFN5aJnVfXHgNmbZvvq9L7sGjBT8XDDUPdzQyNTY1N7LtOPvSqTtQM58JwTdacRH5jPZQe6adBMxh7rVbqsUUIIUHmGnflngcr/9lC453ysk5M9rMzM7e0tDC39hy+JVn0YnCiw9RtRi2b0r29vVkbPbuQTY/FLyon49ikLlYmphamprYB005kchCSuMQGodpnO0d6WZtZWLIsLOy6TDicJo5bqk3ZP64zy9DI1MTY2id8S1Kl+B0gfLeps4LR2KvSFtY04MaO0PEQr3CqvzPVjCorfh3Jstt/hriYGZubm5i3D1uXwJb+34aXEz2rm62RoYmJsaX7wNU3i8XvBd79mRbaI+O4X3l4JXQq5TXFsH9q/qidsrKy5pjDfTve9bGmYxVPvFzr0fxRpVjL4N0cbz5a7kjq+o7N+ppybk9xmKx6PGmpo+SpdjPinh2ku8j0xuNl/013YqjicD+rnT53b0wyxdewsF9Q87/tW6TC8ZN/72gddvCdABD75qnrPGd3q//ycwT7P4SqH0UtibGYGG7/c79V6u/deNtn3ghc4bBf1E/y/1um3ejF/UdN7WC0kEKVtwjZsbuPGr4qjUmEig6Eus18aBAadWTYt6/O+P+gELg7ObClB4FhLQYng2MYhmE/rZ/8WyyGYRj2K8NFDsMwDPtptXyRQ+X3owa7GajIK2iyfvu4lWtzIfM2d/VrNKyHzFnvqei49HmzhdB8j0YieDAMw7Dv1dJFDpWcHNd3RVGfo5nsorvL9M8PC1nzolnLHP/l01eNlzGKXtj2WwdHmbXw2hsJETwYhmHY92vhIocKo3fFKg1bNr2jtoKKRfCKGR3T9u5P5gMq2fWbit+2AtH+UWV7uqv4bs4jASTmiXDTD4/vbGvBsmKZW3UYtuVxNQIA8s32nqahBwvuL3Jro6Ojo++7Rry7EufcaCMdHUMrl45Ddmd9UgIbj/aQFEDTeKciwhfLnGSVBp7hfukISIrgwTAMw75fCxc5/qsnKeDgai/aHJdgODkbFDx7zpY4peHcXRw8O7vXyReZ6ZkP1ugfGzzpZCkCgOrzi6c8Dzz7Mi01LT1+ftv7sUnvEQDFMDLm6XpfxfbLEguKiorybsy0Ee2WRO+583VR0Zv9/ZU/bRyxz0wM2UybeTM9IyMzYZHq3rCJJ0oRAEGlChNjnnlujLv54FlMaP7yZdI6FZNRYmhpqUrciOsD2YC/nz+/vm9Bb3OFbzmAGIZhmBQtXOTIqor38mqqDRvAU1TVVKCqolLSHnsS80Soyir07Et7Tt7JYAu0ApcfXOir2vTfyUnJE2kkgEZ6p1TWtGt5Odu64632MAzDWlALFzlCRpbG+2QDZh6XBzIyMpIKlMQ8EYWAdXFRXoX7J/gYaZl0GrnhvuTJoERSoz3+HUDTPJ1iGIZhP1ALFzmqoYkB/3VOw3bpgre5+bIGxjoUIAgChAKh6JpcfZ14d3vJeSKEsm3I4r2Xn+WXvjrYq+SPQcvuNHn5ShPzRJqnUwzDMOwHauEiR7PqGqD35OTJDAEAoKqbp69yvH7rqACEsq6OfO6rdA4AcDOiY57yEQBIzBMRvtrcv/fyB9UICLqunbOp6odsE0JOQR4Ks3JqESBeFfu9tCrUxGgPyZ0CgDAtqquRxfg43vcfIwzDMOxbtfSCPln3GX+GdhrW1f9Vb+ua2yduGMy5FqpNANB9py5xGxzp0sHEpI1Vj86+ipf4AgCQa7/o+OqZE/tar+FTCTmDLhPWeOtQAIDVd7T9mHHOFrVUKgJVp+G7NjVsV68UMGHKzhF9dPZRFNT0A/+I2xOmz4+NZIXH1CPgVlXW0nz1t9Ko+uGn7i/30OgddSxr3DRvi7kEARruE45v7KUueSJHldwpAPDflxQUaEjJV2u43/35br23vxMCyXlfw59gypxG1Rx64vl6HxyhgGEY9t1aw96VZOWruP3Lp8+Ot992e/9wU/mWHg+GYRj2k2jpH4MDAFDUrAMnrprsVZd843EpPr+HYRiGNZfWUOQAACiG4du2ds2e4aRn0Gl5UqvYaQvDMAz7f9caTldiGIZh2A/RWmZyGIZhGNbscJHDMAzDflqto8jVXxvblibb/o90YUuPpBFk9roOclRZOp1Op8sr69h0nXosnQMAlQd6ylNl5Oh0Op2upGnuPXr7pzs0f7+6lH2RnUw0lJRUdWx+m3kmBy/JwTAMa6pWUeRqbhw5W0qFJ8dPprbGKgcAsj5R2XUcDqcmP36h7oXRo7ZkCQEAaHYLkmo4HE5dSfIG50fTB61MbrYlM/yk5QOmpXjvTa2oLk5c3vbcyLH78iRt6YlhGIY1rjUUuaqrRy9wfpsx3ib1xIkXoiqBCrf5q/VasWdqH39vVwtjx7CdL8WhNTWPtwztYG1hZWVpbtt5/JF0LgieLLLXi7jy6USHdzVS327BYwEIC68u69vOzMTC3NTKZ+yBV/Wiv3MvhbdxXHTnXlSwvR5DTUExYHvR183BqCqWfUO85HPScz+rxhQFQ/8B/nrv0rM4ACDMuzCnm6OFpRXLwtKl/6r4so9to4JtfnS6/1d0x6XZDY2KmuWtLUPQDQL7esplpb5upd8AMAzDWq2WL3Ko/NKRi/wuoZPD+9tknjz+RFTlqFQK98aF1yF7r8QnPd7V8eH8Py7XAQCZf3D2ksqIm2mpqemvLoyWuXTpBZdmZm1Rn5VZQoKwrry4vE4IZFFaep2lrTklb//osKNay+9mZmS+jAl5M2fQH6LmZSxsTLIPj138oteJ9LLKuupLo3W+LrRAWJVyaP8NooOP/WcbkpC1Oef3XCh19XGVB+Df+WPiRfttT9NT09IT/3JNj71T+HEKRpVX19JSV/jyYVdyGjhrqKsyAACquHk2nnDraN3S29NgGIb930EtjCzZ31OVEXqyghSkrnKlm02/y0UIkcU7uyp5rMkUiu6y6zdl3y35JEJkyaE+DOPeq08/yKnkNzTBf7zA3njiLW51zLC2SgYjLtRwr45p67DoKa9sb6Byu+UpAtHdas8O1nRa+lyAECLZewPpGiEnysmvGKEwa62HLE1eRVVVSV5GycgncvN9NokQqtjfg06lK6uqKivIyOm6DVl9NV+AEEL8pHnWjPYTdl97UVT3Ne1/4fi8T14b0MYw5NBrwXe3hWEY9qtp6ZkcKoo5ekO2+8CuagTVvF+wY97p4w/EJyYJBSVxvA1BEIBIEgEQmgN3xi1kPd84vL2+Nitg4r7nNQA0U2uzyszMwoSLKf7juqRcvPs2Lb3WwtaUUlHG5qb+1c1UlMxjPeEqWVNeJhS3SDNzdlD52tA52U5rX5Wzn/zhKafiMXKEu4b4cTTbOQllFRm7eqnTHQZGdmlDBQCguSw8t7+vIHpOoIV2W7cBK64WfPNpRmFB3Ez/Xvvbrrt2YJAh9VtbwTAM+2W1dGjquzNH4+urzgxtq6amxnD9/ZngXfSxhHopj6AwXEesOnwztagweYPb0xkjo14KQcHSqm1+2smYR059p/WyTjp/4uVbI1uWPEVDS5PuOOdGtjiZ511RWUZU54aAVkKGRmtasCrVLOLPscTWKRtefpZlQOiErJxjcGrG8ru14lvopoGztp5PelOac34Mde+gmTHVTepHTJh3JsIv8mmP47d2DjDD4asYhmHfoGWLHPn69NEHbSZcK6uqFMnY3KUq5lh8raQHcO8v7xa2OY0DQFEydHQ0VKRSKQA0MxuzkrgDSTZBnbS8u5k+OHqz0sLGhEqo+fXvnHNg480SIQBZ9WRz5LBNj7nfM1455xmrQwr/nLb783UnVPPINWNpO6euf8YDIPOOhHebEVdGAsgyWa5WTCqF+qGYouKDA0xMBh4q/eLCE17KugFjnvU9cXZ+R42mh5xjGIZhAC1c5IQZJ44+tR4Z0YHeMBr90HG90YWjNyRNfeRcBo7UOhtiZ8FiWbI6/y0zZ8t4FhVAwdKKkfnONNBHmVDt3FU7N8fQlkUHoLQZvO1wSP5sD1NTMzOX0dc0+/ew+74pEaEasHhZpydLZx0v/KxM0V1mrg4pXT9lW6aQotdtpF/eEk9LSyuWpeOwh747VwYpfXzKtWUFBWW1XzyByX+8f+fDitTNQUZMMb3Qwzh5HMMwrGnw3pUYhmHYT6ulF55gGIZh2A+DixyGYRj208JFDsMwDPtp4SKHYRiG/bRwkcMwDMN+Wq2jyDUpaod3Y0K7MZ/txwz8hKmm+mOvNU8YDZmz3lPRcenzzwIFGum0aQSJsy1laKLAHgVVfafeC2PfCaTc3lxqn+8K9zRhqqlpmnhG7E2R9jt7DMOwn06rKHJNitoh858/L/2RoTMUvbDttw6OMvt0O+Tm6ZTe90gVh8PhVOWeD4c9QyYeLUFSb/9+nHuLQxcVBEfnlJfnRPd7O2/g8iQcS4dh2C+kNRS5xqJ2Snb9puK3rQABAKCyPd1VfDfnkQC8m9NsXRfcLzw0wEBHR0fHaPQ5TkMr1Lqnm8LcLPQ1Nc0CFt8Qx9sI8uIW9XYyM7U0N7HwGLrxYaXoZklRO5xzo410dAytXDoO2Z31YT7VaKdkTlQnde+/cxsqH/l6g4+69985X1MJZTScBvV15mWl5wml3P7vUKEP+LcmGsgaTorng3T8xONnOP1mjXVQoVCUHcZO71V18vijLz0IwzDs59HyRa7xqB0JZDuvf3Yu0khr8LG3RUVFRa939mzYLAWxr90UTruSnvfm2tCq9fP3ZgoByNe7Rg6JNlqXmJmemXYp/P3KgfNu1AJIjtqh99z5uqjozf7+yl/slGI8KNI39cChV6I6Jcw4dvil96iBxl9zQPlliTsPP9T09LagSby9sVChT4akzNTSVJEF6VBFRnqZiZW5uBdZc5ZRUVpGDf71P4Zhv4wWL3Ko7MKRq5SuA7ppsvr1t3t96njiN55Pk+8SOcFFjQAF684eWgVv8klAZdfO3jcOi/TWoADImgwc0eX95QtP+ABAqKmrCSptItYOYikRABTKNxwGQrN3ZB/24f2JPAAQpBw9VhAU3kdL6jaTnLPDtdVUleUVzYbetFl7bq2/kuTbCVkVZTIlZt/Zh7lVhFFY1IHJLh93JJPpsPJxXvJyDxkJHYmhuppakFeQKxQntdIV5aGuphYXOQzDfhktXeSkRO00DaGoqiKesVCpFEQiBGR5WTkwtZji5yjD0FSpZFeQAE2P2mmUYufIIXIn992sBV7SoROckHB/ZekPoPfeV1xZcmumDVXbP3KgnZK02xsNFWoiQkFJEerrOArWQeHhQdbydbV1oKis2NKvOYZh2H+mtUbtEAQBQoFQdE2uvq7+W2YfFA1NBpQVl4kvk/HLSt5raDEannHTo3b+RcZx5Cjj2H0XC+4cilYeMtL9qzZ/lms3fXXwu1XTD7wlpd/eWKhQ0xDqLGut7JcZCp2mbNo02Usu/UWOvq3VFyoxhmHYT6SVRu0Qyro68rmv0jkAwM2IjnnK/1DlCHkFem1uVqEAQFhXVl4nufwRTP++nq+P7rhTgQC4mQd332D06NXuC6f4JDTVeKcUo7AI97tbJ6+/aDJiqNVXppoSqv6Ll3klL5pz5vNFlJ/f3niokBj//kI3o/aLHnxpDYmM28BQleg1W59Vk2Rl8oY1sXqDwpxoX3gQhmHYz6O1Ru3QfacucUuIdOngHzRoi1xnX0UhX7wihWY7eFqPkiU2qqoaevZ9Nz2TslCFYjBy54HeWZNdzCzNrXse0V1+YpkXXfLdubGRxro6OjqGw05Vvlrrq6+jo+ey4D5fWqcEs1dkYNbZB66jQvS//lBSdAesnGUSO3vxtSok6XYJoUINQ60sKiiq/PJ5XVnXBcdWG57uY6KhYT7wit2GIzPtcI3DMOwXgqN2vpPw1QqPnvkrn2/xU2jpoWAYhmH/gL/Xf5f69D3z98iMPt8ZVzgMw7BWCK+0+2bcC2OMDH23qizcNcX6Ky/HYRiGYf8pfLoSwzAM+2nhmRyGYRj208JFDsMwDPtptY4iJz1qh8zf0kWl2+7Sf55X5Z4KUXFbnfbxMbxLozQVQ059trKezNvc1e/v143sm9xopE5z4F2dxNLV0VSRk+9z5IvblEiI2iGz13WQo4pullfWsek69Vg650ttNQWO4MEw7FfQKopck6J2pJDxmH/p1grfz/Yt5r98+qrxMtZYpE6zkPXfkFZY8GCx89f+7lxC1I6sT1R2HYfDqcmPX6h7YfSoLVnfdXQ+hSN4MAz7NbSGItdI1A4AL+PQaHdDPVM7V/+xhzI+fAKT+edndDbVM7Jx8Rm66dGHDfWFL9f46uvomjl6eM+/8fHOb7b3NA09WHB/kVsbHR0dfd814p2xGo/UAUDshLVh7S1MLSxMzJz7Lb9eTAIAcE4PUPeet2N+aNfO7lZGVj3WPKgWbTdW/WjzkPamBoYGegYO/f68W/G9S3gkRPBQVSz7hnjJ56TnCgGAm354fGdbC5YVy9yqw7Atj6s/9ip8scxJVmngmS/+SBxH8GAY9oto+SLXaNQOKj42c/Id1z0vs14knhpacTtZXLhqLy0ae0xnZXL2y+SLs9CDuw31jGoz80ZeUf6deY6fzssohpExT9f7KrZfllhQVFSUd2OmjWitf+OROoh9ZmLIZtrMm+kZGZkJi1T3hk08UYoACCpVmBjzzHNj3M0Hz2JC85cvO1mKAITpm8fNzel7IevN2+zYkPzfJ2/5vnmoxAgeYVXKof03iA4+9jIA1ecXT3keePZlWmpaevz8tvdjk95/rHIySgwtLVUpm7qInyiO4MEw7BfR4kWu8agd/uP4BypdgzupEUCoug/uwxJ9Hgte3r5b1ym4hy4VQMFmUKjbN21EKQknIfoKvXdELz0aAFWn+8ieStcv3BNdCKMaBA3116IAyLKcrGmF74pIACprxs13l6dayQLQWd4eWgVv8r6xyEmI4OHdnmGtoaasIK/f46D6rJgdA7QJAKqyCj370p6TdzLYAq3A5QcX+qp+2Gaaypp2LS9nW/cvbRSNI3gwDPtVtHSRkxC1w6+qrFNRF398E6pqqqJxklWV1YrqajTxzeoqzTl8VFPG5jK1G5J5KAxNdV45W/TRTygoKohrCYVCkCRCAFCbdub3oV2c27m2d/ccc7xI+M2/OJQQwSPbae2rcvaTPzzlVDxGjnDXIAAAFALWxUV5Fe6f4GOkZdJp5Ib77Kb3iiN4MAz7VbTSqB0ZFRX5qvJK0ec3WVJUIpojUVRUlGrLKwXimwtLm20lBgAQSppMuY/JPGRZSTmdqakkKY5HmLZp1JirJsuvJCU9fJCwuZ/mdx5KCRE8VLOIP8cSW6dseCm+ZkYo24Ys3nv5WX7pq4O9Sv4YtOxOky+m4QgeDMN+Fa00akfGydOlMu7o9TISBAUX98SIP/hp1h3by8YfPfNOAGT53d3Hn32xyBFyCvJQmJVTiwDxqtjvpRUEumffbtyzO84VCAAEBed2neN16+sp8dQfqiqvpBra22pQgff6zOGbldx6zqfDoVCpwONyv36eJSmCR855xuqQwj+n7c4VAghfbe7fe/mDagQEXdfO2VT10wQeYVpUVyOL8XFfXCiJI3gwDPtVoBYkSF3lquiy4qXg402VZ4fq6gw99x7Vp+wc4qSjoW1s23ni7mXdVPy3F5EIIX7uyfEd2mpoGrI6DN+6ZqCW8/IUARKkruuip62trc1UlqHQ1bS1tbXbBh8oJhFCiGTfWOhrqKKgpMbUtx12+J0QIc6FCCMdbW1tbTU6RUaJoa2t3cZ5/j0eQogsu/1niIuZsbm5iXn7sHUJbBIhhDjRYeqOS5+LRsk5N4Rhv+gpHyF+xv6hjoamzp38gyK23Tk31UbT2PePh7yGZ1L/4HdPbWVVTW3ttn125wslHQP+w1kWSsEnOeJ/pa3zUjEZc6VSkLXWQ8l3c57occL8A701dfofLiCRsODSwp5O5mYWLEtzllvI6lsl5Mfj+Xypo4zigNOcrzj2dS/3R3oaM1VVmWadJx3P5H7dK4ZhGPb/Be9diWEYhv208GIDDMMw7KeFixyGYRj208JFDsMwDPtp4SKHYRiG/bRwkcMwDMN+Wi1f5FD5/ajBbgYq8gqarN9mnX3d/PsEC5LmshS7bMlvJG4HwzAM+5m1dJFDJSfH9V1R1OdoJrvo7jL988NC1rz4/jL3+e8iqNbjjt/a1E+rpZ8rhmEY9h9r4Q9+VBi9K1Zp2LLpHbUVVCyCV8zomLZ3fzIfUMmu31T8thWIIm3K9nRX8d2cRwIA1L7YO8bHytTc0tS8Xd/lN0RhOEDm/uXFDD7y4swUb1NtDWUF48nxfABAhXv7Gejomti195pwuuTjTA5VPPh7sLuFiYWFqaX7kI2JVeKaiMriV/VzYVlYWVlaOHafc+Fdc24bhmEYhv3XmnMvp4SEhLKysn/cyGQyPT09JT2E/+pJCjiMshflnBIMJ2eDggfP2chdQvHl3F0cPDs78saLqbZ09vUp3oMnmT87FqpJUPSsLGlrl47iDF57L6+TtgxJIgoAELojTr8dgUp3dzc98rERVHl+avA63sr4tCHGlLwTw70GzrN5sdlXAYQpW6ZtV132LD1Qlah/vnXKlutZ3YZbUr/zsGAYhmEtpTmLHIvFWrVqFZvN/nALg8GYO3eulIeQVRXv5dVUG7K8KapqKlBVUUmCRqN35z89e67Ub3WErQIAMHzGDtL3jI6vDe2vBISaujJbIWjl3E7aNACgUCTtqwwA3IQzF2l9Tg0wlgUA/T5j+swbfCYxytdHhlBQUXyfdOJgXJve3g72Y7dva+IBwDAMw1qX5jxdyWQy586dy2AwRP8UVTgmkynlIYSMLI3H5TVcQUM8Lg9kZGQkVSiSXcaujh1vY2RkZGRkZPrbplzq+7IK0WlIgqJk387iK4o2qmezqwsPDjQXtWIedrSSU8XmAQDFdMKxM5HqN1cE2+voOvSacyb7ixnbGIZhWCvWzFvPi+rcqlWrAOCLFQ4AqIYmBvwbOYUkGFEAQPA2N1/WwFiHAnUEAUKBEAEQgOrr6kVlkKqpraXRd23a3sDG0q9pNJqU+dsHhIKWpqph+OmUP93/lblKa+MzIcpnQpSwMi1mwYDwcSbucRFt8IIVDMOw/1PN/wEuqnNfU+EAgGbVNUDvycmTGQIAQFU3T1/leP3WUQEIZV0d+dxX6RwA4GZEavturAAAIABJREFUxzzlIwAAmkOfXszLW/ek1gEA913M/MGzzxU2+ZcBch37B3FObz7zhgeA6jIOTBm8Mr4KAaDKuBkBEUfeCQCoaqbOdrqyVArxNWUTwzAMa51+SIjY15Q3MVn3GX+GdhrW1f9Vb+ua2yduGMy5FqpNANB9py5xGxzp0sHEpI1Vj86+ipf4AgCQa7/o+OqZE/tar+FTCTmDLhPWeOtIrNOoeH+I6+w7PECcytr6e05tllFodrOvX5pq2W3tySmTJ/tZzEUUQtGix6y/3FQJAFDzHhpyasJvVkuFNEAybQPWbx6si4schmHY/6/WELVDVr6K2798+ux4+2239w83lW/p8WAYhmE/idZwvYmiZh04cdVkr7rkG49Lv5hqjWEYhmFfqTUUOQAAimH4tq1ds2c46Rl0Wp4kaOnhYBiGYT+D1nC6EsMwDMN+iNYyk8MwDMOwZoeLHIZhGPbTwkWu5fFujjc0m3a3GTOGyJzN3dvq6GgoyNnMf/Q9FzirTwxsv+C7WvgWgqeL7GRo5jPuNfsqJN7VSSxdHU0VOfk+R2qau3EJqg71VqLRaDQKhUKl0Wh0h8VPBACCxNmWMoq+m16TAAD8hKlmNnPxtWgMa36tq8j9e39n7FtQTMZffFf09tAAte/7mZ8g/WlK/X9+zZb/6OiJDILy9szxB829rZqs/4a0woIHi53/tdfNj6M6+GyNQFC2J0jBel4iR8B5ttRJ9OtUQpH6eOv2R3g9MYb9SK2ryK1atepr6xz5bqOPep8j7z+5SfB4gZ3+yPl9NTr9/fqTbVDIN397q/eeP6qt7eezmvdH+6p7b3gjYcMUYcrv7TT7//736J7dfN2srHymncsTQvWx/o013vfo+8YbAZCUDYTKb68IstIzYLXzDF5xiy1uUZi60lU19LToo12Y/kd7leAT9ZKbRoXb/FX8522c1Le7XwcbS/fwg+lfrgr8WxMNZA0nxX9x4lh9apiJf9Sr1L+76uvo6LRxnJPAB4DaK5GGhmOu1jXcq+7qGEPDyCu1wDk9QM118vo5od39vewtnUI2PhJPlXg5Z2Z2szM1tTQzs+v2Fam43AfHTr1rP3W6Z2n0sQQpz176s3x9bl4PB0NdbU0tY49hm5KqpJZq4btzs7paG7Y11Ncz955wPLthiDWPtwztYG1hZWVpbtt5/JEPR1fS7U1DbRvYQ+XoxouVeOkXhv04ravIsdnsr61zFG0rlnJueq4AEKeyuKyaD1CfkZpv7uBlrf8mPVsAwK0qKaniAggyU3MM7DztTQsysjkA/Oqy4koOAkH2qywlK2tdSUeASqW8v3KDnH4q7sbDB1GsmLEL42rkLa0aa9yWpSBpmKJsoF4nX2SmZz5Yo39s8KSTpQiAn/Rn5Hr+xNvZaY9v/Gn0Ir702z7nqDQqLyGuKOzgxWv3ko/4JU+ZcbToiy3JKjO1NFVkv3Q3UO6/P/NAf3XLyZfzioqKCp6u9pQBAMXOEUNUzu6NE38yV187dE4pbFRnRSCoVPJ5bHqnLbFX7zyOHV6yeOLWdCGA8NVfYaPjnXc8ykrPfLLXIyFy1I4cqRux1SccPV3k2j9yXGiHirPH4mu/8lB8RpgaFRZ+q922J/nFJdln++YtDpl3U0q5rIldEHFMd/Xjt2/ePv3DIGbC4gs1AABk/sHZSyojbqalpqa/ujBa5tKlF1xptzcVEuiHjnO7tenwW5xZj2E/TOsqctCEOkezsDHJy8jm8e8v9DRnDTpcys9+laVsZetqa16dmcXmp0cFmpsHbczkF6el11nYutmwlHLSX/OLDw6wNO+0OJFfn56aZ27HkravmUy7vv0sZAEIVe9uHpwHCalgZtNY4zZmkloRZQONjbBVAKAwfMYO0r8WHV8L5NuEO3nO/fqZyADIGocM8v72XV5opkH9XRQBQN7+t85qiXeefGmiJNNh5eO85OUe33rCTsZpZDjr2t7oYgSAyi8eumw0fIT47B+F4RfsxyAAaMYBXU1TEhKrQZgTG/3SOXyiuxoBhLLzmJFOydGXpRXi2ltHz5Z7hPYx0u8Z4lVz7uiN6qYPUZh17tQL51ET3DUoQCg7TI3JSP7Dq7EtvcWUgnZkpGwNYhBAYXp623Devi0jAYCQVVEmU2L2nX2YW0UYhUUdmOwiB1JubzqC2XtC33fbtz/m4ckchv0gra7IAQCbzd61a9eX7kXRYbEUctKzH8feYY0NK7t0vTA9Nc/MlqVsYd32TXpmTtxV+YjRclcvv0l7lWNgY6VsYW3yLiOr+GpcxaCx5gkXn6anZqlYWWlJOwCEBlND9HeKkrJ8ddV7Ur7xxiXWKAnZQOT7iipQVVcVXTGTUVVT/OZrZx/HSCgpK9ZVvf/hixcoxmERXo/2HcslUUnMoTvOowaZUxsZixJ6X1VNkuzScu69he2NjYyMjIyM3ZY8lq1hl0oOXH9/9ci5aq8BvfUphHaPEO/6i0evVjV5hGRZcZkMU1NFfFBpSgyGksT4JgAQFidsm9zLvZ1ze3ePwNWJfPFvRwnNgTvjFrKebxzeXl+bFTBx33PRCVhJt38Lesexo5SObIqrQniTVAz7IVpjkWMwGOHh4V+8G83C+n/tnWdAE0kbx5/dhN4CCST0Egi92FGwi4AdVERQbNhRz3Lqnd2znneevZyenoJUQUWxKyIW7KhILyIdAoQeSLL7fiAgngSFF09O5/dJl8nszOzO88zMzjx/o/y0q5ExWmOWePTLvBTwIkvF3EJD2tiCXZbx8NxVwsV3xjD+1eCHaTUcK7Y0y9xUNvtl4KV3A70WjaBHX7yenGdsZdbmfIYsL+M1riQJyspqlFVVcGrrmUucDjZqAx1PfttIdl5J8eV5ujiupKIMvDLxkl9tUVGleCSP4RgpEjb6ALKu5jM2fZC8pjKS5WU8BZrKFwm5/QGY+th5Y3P8A15nhZ95NdR3fHMQa5JXVt5UltJyTIWmjFPUmeqyg359niVugdzikri1tpLKSJZfDYoqq7+73FyVRlPlLLnNL78SdKWsvdMcnKFBF5QUN32HE5RlJWaVSZ7hVket9vq9bGLgg2eP4h5GrmixKQWn95qx/Ux0UmHB032941fM3PNG1Ob1DkDhTF/Y49bB8OLPkolCIBDtpcs5uc+RWm0E1zQ3hUf+V1VHDGf1dO2dEnghz8TalAryphbaqQGB1U4jjE1dBpUGh2QZWpnJApVjyc4N809zHNlDy2m47IXAV0oWFupNlkXwcF1vgz7r41qaQkzwPCwooRZAlH8hLFbBYYC5xMzFkEX+nkZGkwOaP7FJ0AbC9fr2ZT0LDU7hA1n98rj/A7GNxBmaTCwtMVUAANXPIq6kt7SdH2UOAADCtMjAhzwSyPI7Yddr7Ad2b+G2KRS8hSJtGzWVBCYrL8PNzCgnAARVXB6/6brCoDneosBNK//OGevr8n4HJ8G9HnS5UARQ8+LsxSzbAfaKgBuMcrd5cuzA0woSQFgcs33GfP90SR6B5EYFXpfyDMnjickNniR9IziKSwIACGJ/MJRS9wj59PdLCnu0m8XTE4efVJAAdSnHffq6H0pu8d0Lp1Cgob5enA/ZwCurVTO30ZMFsuLx6YgEIb+OTwJA/cMtrl4Hk/kAuKK+nZ2+AoWCQxvXOwam4eY39t2FK0XowxwC8SXoWk7u8z0cAACVY2GYnkZzddHAZe1drErSZczMGRhQjS3Y71Jwp5EcCtXStX9DaomJpREFcE1zTm1KRd9RvaRwbWcnudQsYyvT91OKel5hfiHvgw0EpHQ/e/jVpbsFu+faYq8jG4crgKTMmxDVcPPzuTXvrbhMn/UhO/TPulsYGrPNXfYUO0wcyMIBpPutOjgf399fV9ds8BZipLsuiEQAgNHHrV6lHTq+xwCXMbMjtJ37SgmFQsmZAwBI9RhA85/Qy4ptOevpwL27Jmm8nxBQLYYOx/9yZrFYWrarYpudWis1lYS0w+wVfZ7PM1CmMQx6zwrIbL61lN3MWayrkXzPmY4tlmqpxoP0Y2Y52Jpwxp1nb9s315gCQDFd7H/UIW6mnSGbzRmw+rXZJOcW7fUBZFFkYDTDe55rk9vEVEcumKJxJ/hiEQkgTLwVXWQxf7W7+qenPFTL5YF/Oj6aZaevr8sZG6q74+zGfu8/m+GafZ1tny1hM1ksPfcT+aTq6BUrdMIndXcY6jr3kuW69cPy9032O5tPyPScPFPjvIc1x8zM1GzwXqnVhxaaUQBA0nUJNJ6TY8y8VJu4rbds0zm5FsgPWOBrXFuFnBwC8SXoWrEruVxuO7ToviiipG19+jz/sfDsJIk7J786ZPFxV+Mzo97c8tP9twcrJC9iiu3BvjE3/AzEt64/7625nn37+Wa7L7JgSrzdO7hf7Lz4sMkaaF0PgUB8Nl1rJtdVPByibQjunS1bHw1Z4q3/b70/ZFnMHf7Mn8YjD4dAINrFl9+mgPi2ECXtdh7261vLOUfPjFb911wOxph27tG/dTMEAvHt0LWWKxEIBAKB6ES61nIlAoFAIBCdCHJyCAQCgfhm6RpOru7mfF2qdJ+dKR0+U4tAIBAIxEd0CSdXfTvwfAkFXoSEJSEvh0AgEIhOoys4uYobQZf4LisWWiaFhr5uPCdLFhxxoo3demKpm9PAXhxDO69jb8Snlz9WORG+WG+jPed6S1muhhtzdazXPheCqODGZvfuxkYcE7b5oPmnE8Wh6Ouv+mrZrY99sGeijTadJq8w/GhjzGCSG7N9fE8zjrm5KcduxOpLOcjnIhAIxH+ZzjxCcO/evY/VAxgMhqOjYxu/IsuuBl4WDD24xDfz2pGAkBfr7XpRASgUvP72pberr1z/g1Zza6Ht5J3XvE+PkRernLxOns7EBW8Df1x/9fX4JaYWnLp7acXEcE1+GZcvy1CTLUxOqTUdbILnnprtFaRz6n7aCKYg9ZD7IO+d1k82dqOCFMfSKOPA/A2DVoemhJopkgSBYwAgSji07KjK5pcpI1WwuleHfzh0K911umkbwSwQCAQC0aXpzJmcmZlZbGzs+RbExsaamZm1+SOSeynwBu7s6apuNn6C9duzIY8bp2QYRrUe79OHhgEo2HTn8PPyeKQElRM5U3PdtykZwuqoBXbG3fyu1ghTEzP1LM1ly29G3NWbssiZSQGQ5UyfOzQv8mKSCAAwmipNyLOc85u3mSIGgOPi2PnyygqVT0L9r7zIrZGxmX/0CPJwCAQC8Z+mM50cg8H46aef6HR6438/KxAlWXgh6Lb0iMnONIxiMn6iXW54SJx4YRKTV5RvPGyMYRiQBEFKUDmhsi2MeWlpBfcuJzgtGJpw+f675JQajhUbL+eW1if94cpuFLqx8LtBVJdxReIcqcY9bJU/PMyMs/2CI+aqRm+daMPStB27OiKjY5LPCAQCgegadPI3uWY/95mhlomciKCYuooIH10ajUbv9ctLYc654HttiDi3qnIib2qum5ccduFZN/dlYy2eXAx9887AykwOV9NQl7VbfTtDLPOSU8hN3TO4SRIbk6J+rG5C1Rrktyf8fnpJTswG3au+C07lo7C5CAQC8d+l8zeeNPq5zxMTIN6GB8Vp+d3kVoi1VVIPDq24EBxTI+kHraucUI0tjYuvnH5iOWqAxkBXdlxQNI9jaUTBaMMmDM48vT+6WARAVLw4OHfagedtzM1I3pUVw+cE5ggBKDR2D2tNaQqOoViJCAQC8d/li+yuZDAYnxVqWZQaGhRvMXNOvyZBNlxn0oJx5KWg21USfiFB5UTe1JyelsMeOUgJUxnszMzK1LcykwXAtaYcOeORt6ovm21s3HP2TfUJo61lJOQMABhtoI+H6IiLuamZuanV6DDj3X9M0URODoFAIP67oNiVCAQCgfhm6Qrn5BAIBAKB+CIgJ4dAIBCIbxbk5BAIBALxzYKcHAKBQCC+WZCTQyAQCMQ3C3JyX5+G6IX6xsvuCzovRyLz4AhdFktNXsZyzTPh/5FRVejkPmv/rxzaDT81ZJmrJVNRTollPernyGwhABAZv/eTkbbdGC8EABAlbeutNetqc0Ru4u3+QXIU5rSLTQdPGm4v0KbIDtiTRQAAWXJ6rIqUwZK7Ami4PJNBwanvkTFf/ajzKkfyQqbos1gMRWnWh/HCvyBE5h/95alUKgXHcQqVSpUfcuAdAdBweSaDyvAI5pIAAPXnvemOuzNRXIOO0nB1lrqCx9nPin/UepcRZEWsGG7GUlVRM3CcF5Dyf0RSEj75yUxh6KG8rvM0ibxDQ5Vd/yrpxG36DTcWm2my1JVl5NwCq//v3LqWk/s4vjOiI+BGCy/nFL4L8KT9f8f8hCnxCXX/6hGTuvvrxvle01kXnVP67tYarYvTJ2yPFwAAYHKyb08cuNHKAUpRxtmgOBGVFxV0o6L5Iq6umhkali4CsvBCyEs5etN7jmvPv1ErbKI+aUefzgtRjtEmBWQX5l5eyP73Ip7iRktja4UNKb/ay/f/I7NBWHvbT68pEKsg+uDpdKSj0QlI9V1z9c7WIdISE7w/h9VqlxG83DnphwTnM8ml5RlBQxI3bj5X3OFeRbFYEHLnwHiNrmW5Oxlpp33JBflxG3pIdUZuXauptm/f/rl+jsjZP0jVLbCyxSXh87XWOjPXuKsN2Pu2xTiHyN47UHXcmlm6Vh/OaiqD3FUH7suWMCISJfzSXX3CL3tnj3Ed0tvcfNCyyFwRVAVPaC1z96DK1jMBAKh5fXLeIHO2iSnbpLv7lttFjT8my+5uHWWurWfW3XHi1jul4hxFSdt6qUwKbxzniVJ29lGeGNpGjDOy4IiTstPP+xe7jxjWz9LU3tf/M4aIgjuL9KT1F8d8cuJYdXaakdOexKS9zjosFkvLbvU9AQDUXJ+rrz/vRm1Tqtob8/T1516vAX64J63Xkt2rJ41w6m9j2s1j/zPxEKwhM+JHV2s229TY2Np15fm3bd2YH3PSP99pzc5JFqryqpaee04dmWOv0hhtVGnoOKvr+0M+GsGKUkKD443nrRgDV4OulDXZDqqpy5CKsJCkhtxzoXn9hnWy26lNDFg0zFyHxWSwOEMW+ifWtpm6PiVg/kBTPT19bR1z1zVXCsQ1kKTr9LGYVIeQsh47vOzY4Yf8jv28EcHbyJ9H2+prMtU1DPtOO/CkggQAEMQsMrJddHD7NNehDtZGnCE/XRfb7NZqKoj2Yw/x/XFcT7aJx96TG9x7s/UG7WocuLTeNVpDkpzW4pUD22EEJPVTImvvQCXbjS+brIPwxXpr5SEHswkA0ZtdQ3RYmsZ2fQeuud3i9ryAcapD9j+/scHVTJOuIqfiFVEPkroMNDz462Td1K2Le9BwXLXv5rvpZzw12hp9EkXR2yf1MtRiqqvrdp+wtdlmFJwcr8fSNLLu098vvPhTM7nW+mNbqmSSkKBW1pAaMNteX5tt3ctpfkBqU471573Vum1+3fgm11/0YdhueNlG1q3Z2C9A13JypaWln+vncKa5mVJWSpYQSD6viFslAKhLTcozse1voZOdkiEEqK8oLq6oBxCmJWXqWTvasPNTM/gAgipuEY9PgjAjMV3R3EJTUgtQKHjl9dvE8rNXbj+K22N2Yf66K9VypuatZW5lJi+pmPz7Gyauyhgb9jotJS1ul07wlMVhJSSA4Mmvc3cLFt3NSH5++1eD1zEdnOpTqJSGe1cKvfwv33zwNHDY0x9WBBV+MidpJYaGurLkUWkTShNOpZ2eoGq65FpuYWFhfvwORykAUBg8Z6ry+ZNXeI33qboZEKnoNWuwAmAUCvEqKmXAoagbsc+jphdvWHQ4RQQgSvzDa3ZMjz+fpaekvTjZ997cWX9KXjcjchMSq4y626qITYB8d4/ZToayAACkQGWk36jUw8dff9hphAkhIW+M3KYv93Kh3AiO4jZ7OZvxYwXnQ6+djShxGWfdqT6O/3DjhB8zxoQlFxQVvTnRO26h16/xknsyWRiw1O9u7xOJ77Kz7y/Fjizc2bgw3ajrtOlRSlJSysvTo8sv3UoXAYBYTCo6OSkpJfHSbKmrV193zMuRYDl9jtbZA5GlHZ40iJL2ePne6X7kRV5RccZ599wNHj9H1wEA4BQyLfKezqbIW/fjo5dgh9adTBVJrCmVSjzJZu+P2ecYszZIc9+dw66ZwZHJIkldo1WoxhacuvS0YgJEtWVFZbUiIAqTU2pNezuat8MISOqnuIHnjEE5QWeeNtrq+oenAwucfCfp4QAUyx9v5xbmxf5s9+GMX9HUXPP1/pm/VS28nlVaUcc7M04GJHUZIu/5i3Ijuac/DLUx0jewdlkWmtbWIyVyT/l6Bmr88iC7qCQnehEc8lx8tpQEAExzRvi7woKE3wd/uvNCq/0Rk9CMViaS1jOI3FOzvYI0ttxPS017c8Eje7X3zhdCALIo+Mclsb1OvEl//fisT/ndpx1bnW/NxnYoo7bpWk4O2uHnqBxLo9zUjAbBw3WOJmbeZ0oEGYnpSuZWvaxMqtLSSwUpe0aamIzanyYoSk6p5Vj1tjRTzEx5Kyjy9zQ1GbDhsaAuJSnXxNqsrdUqqe7u4znSAJjKQNe+/Lh7SWBs2VrmlsaSchHEn48sGTZ/jpU8AE4fNN9b5+a5mBog3t2Lze0xfryRFIC0oYf3QLmONRYAUNmjJvRUAAA5G5fBtMexLz41Q5Pqt+157tMtfTu6ECDVbaav2c2T54pIALLscsA1g+kzxKsKOH3YxGF0DIBqONyZnXDvcRWIMqPOvenhu8iehgGm1GPezG5Pz12T6IiJmuoaUFBUaHWYiykMXDiDcurgzaoWPxc8Dw5NM/PwsFUb5uEqczv4YpH4j6SUzaTxePiak5VjJ9m9ryuRd9RZWVaMYu8tr9s/dBQ8PxtR4jTP10oRAwrdcXN05u2VVpJfI4w1PTw7bouDIgBVp39/o5LsHD6ARF2nVsWkOgRJMfBeOODhwdOZHRwei9Ijz77uMcvPXg0HTMl26YXUpzv7ywIAYBimNGSqh4EUAEXL1la9MCefkFhTDKPodO+mKaPBZDAtLJnS6kzVijIeIaFrSECCnJalVXuMgMR+ijHdZo6oCPW/xweAmtunwurH+Y5htDXZwmhqytUNjqu3jtKThfdiXa1ClJeV10afTxp+9H5aetwflnfmev2eIPGZkKXXw2L0vf2cNKUAZI2nnU5IPDZOrUOfHT7uj5JUySTZH1KCWpngeUycsvPEATQMMBX7KW5tmtE2+cjGfoENAF3OyQFAaWnp8ePHP5UKZ5mZyWemZDyPijWb78W9eqsgJSnX2MpMiWOhm52Slnnlhtyc2TI3rmUnJ2bqWZorcSyMclLTi25cKfeeb3LvcnxKUrqyuXmbS9uYGkOt8e+4opJcVUUlIdd65hJ9FFHKLa2KWmjZKPbDdjmQRanklhNEZXkFqKiKJyxSKrTWzfrn8L6MmKKSQm1F5RffJYIbes3p/+zv4CyCLL4QENtjlrcJpZWyKJKVFVUEUVpSVv9gXR9DAwMDAwPD3hufS1eXlkjq4bgKTRmqKqskOEGqxcz5llcOhBY0/73hUXDYWyuPiRYUUBriMUL+bvCFZt0IqoXHBMVMGbdJli16IK4991olX0z147UdmOMR3OIyZQa9yXFKKzPU5Nvq4w3Z13fPcenZvWcfe4fJR5JF4u83EnSdWhWT6iCY6ki/Sdxjhx91bC5IcIu4Ugz1Jj0qqiKdrigl/g8mpygv7jo4hpEESUquKWBy8nIAGI7LyMhggGM4SRCSuoaEskiQ0zLRaZcRkAMAqD47Vbsxui7LYVvTYpqKy4zx2Hn/m9Vk+eVTF5Um+w5V/ETbYhjVsoeNbNupGpPKyspSe0xfPtpYiSLFGrpiTs/kG3ckypsQpcVckq6u1tS68qoMZemOmYeP+yMuQZVM4kROglqZoIJXq9xkvzAVmkqH/cjHNrajOUmmKzo5Op3u6+v7yWRUjoVRftrVyBitMUs8+mVeCniRpWJuoSFtbMEuy3h47irh4jtjGP9q8MO0Go4VW5plbiqb/TLw0ruBXotG0KMvXk/OM7Yya3M+Q5aX8RrbXFBWVqOsqoJTW89coo2jqDM11NyPJ4vFfrLzSoovz9PFcSUVZeCViZf8aouKKpvMAY6RImGjDyDraj5j0wfJayojWV7GU6CpdKbWe+tg6mPnjc3xD3idFX7m1VDf8c1BrEleWXlTWUrLMRWaMk5RZ6rLDvr1eZa4BXKLS+LW2koqI67VrZt61uNnTStswjdHF64If/9tBdOcuGhE0mH/NPFry78XFP5WmLC9L51Go+lMCePVxQafy2lKTjFdfqfg7o/mndwiOF1DraK4pGnGzC9OT8qplPigyMKART4BcosvPHr6KO5+gK/xe68qQdepNTGpjiLTe+5sjdD912o6YiZxhgZdUFJcIa6boCwrMatM8kJBGzVtDQldQ1JyCXJa7TMCVAAAhVH7nyckJCQkJLyMXNw8AJIbMH0yLSrgcur50zf0fWb0+owVQYwq9bFYV2s11bMwlS9vduAkSWIUCkXSL3G6Oh24Rdym1JU5SenFHfuw2kp/lNCMknKQpFYmpawsV9Fkv4jiwuKmVxTHMZFI1HhdUFv76R3jH9vYDlW1Tbqck/tMIToAwDXNTeGR/1XVEcNZPV17pwReyDOxNqWCvKmFdmpAYLXTCGNTl0GlwSFZhlZmskDlWLJzw/zTHEf20HIaLnsh8JWShYV606smeLiut0Gf9XEtnwomeB4WlFALIMq/EBar4DDAXGLmYsgif08jo8kBzd8WqLZuYxnXDp9IqgWA+pwLa6asiiwgANfr25f1LDQ4hQ9k9cvj/g/E7wjO0GRiaYmpAgCofhZx5YO9cR9lDgAAwrTIwIc8EsjyO2HXa+wHdm/htikUvKG+4R/2t7WaSgKTlZfhZmaUEwCCKi6vuaspDJrjLQrctPKU5VbWAAAgAElEQVTvnLG+Lu93cBLc60GXC0UANS/OXsyyHWCvCLjBKHebJ8cOPK0gAYTFMdtnzPdvY8efdD/fOeb3tq3wT+AJarOvrZuz/r60NrPFS6o4ZIEPdulCiggAoPZO0Hne0INpYp0mHve6n9bj4PCsZqdIlVOS+0wXV33OW03KcOGtT8+bpHq4jWXc/PNkUi0AWflsl7v9jMCW22FwCi6sr2+qI1lTXi5iWtpoSoGo6JZ/VLaQX1dHStZ1al1MqsPgRlMX9Ht47k4LK/nZNaWwR7tZPD1x+EkFCVCXctynr/uhZMkDbUk1lYCEriExeetyWu00AgAAmCyNyWKxWCwWk674/u2Q6u4z1eju6XVnHvecNdW0wx9xW+syikOnuVeeWH88oZoQltz54/hza5fBTEmWB6MPHz8gO+jw7RIRQEPOWb+BTlvi+J8a7bZqHFrpjxKaUfwDUfIeZwPOwivNX9gkqZVJdXPsybsSdItLgDD/8okL78QPjsLUZBQkJleQAKLc8+EPPzA+n2tjm8EpFGior/+/t3d3LSf3+R4OAIDKsTBMT6O5umjgsvYuViXpMmbmDAyoxhbsdym400gOhWrp2r8htcTE0ogCuKY5pzalou+oXlK4trOTXGqWsZXp+xat5xXmF/I+WNchpfvZw68u3S3YPdcWex3ZOFwBJGXehKiGm5/PrXlvxWX6rA/ZoX/W3cLQmG3usqfYYeJAFg4g3W/Vwfn4/v66umaDtxAj3XVBJAIAjD5u9Srt0PE9BriMmR2h7dxXSigUSs4cAECqxwCa/4ReVmzLWU8H7t01qcW2LarF0OH4X84sFkvLdlVs86vVSk0lIe0we0Wf5/MMlGkMg96zAt5/3JGymzmLdTWS7znTscUokGo8SD9mloOtCWfcefa2fXONKQAU08X+Rx3iZtoZstmcAatfm01yNmrDgkjZrAoP8a75w1lXWaP3slf9j53fZP/BOJNq7bugl6iSAICqm4EXiTHzPbSbXmJZh7mzLeNDzqZLtpVE3mEn+fcH5eTsdzb6y/rHN+8KHZctH/yJVSoAAFnHzWE79M+6mevp61pPe9jvz8Cl5u+rRDEa4KwV5a3NZLEMZl2oww0nr54FB4Z16+80euVLly3Lu73YNGrNzWpJuk4SxKQk1ifzj/7yVGnTlXG1sUuNpJvOyb0Ho4/xm8yorm22FO2oKdVyeeCfjo9m2enr63LGhuruOLuxn+QPhJJqKim9hK4hCQlyWu0zAm1B4XhPt7wTHj941sSmN0qUvHuYDovF0u6/Lb7m4mx9Foul5+Hf5vb/VruMstOusz/RTo7QV9OwmvtiwNHTi1s803/2R1x3xvEzE/NW2xvq67EH74YlZ/8YTcOALDo1UY/FYmlaLY+uufdTNy0WS8fpj5SmLtmacWitP0poRjGCyuL8/LIWQxMJamWYpveu3/o+nmGqZdRtys0ekwZIi0QEAFB7zts4Lnttvz5DR07YVGzvrEW2sF+fa2Ob763Z19n22RI2k8XScz/x/8hXk12JkpKSr12EJoSJW3sojQ+u+drlaAui6Jiz0qD970Rf4dbl4V56Q/Znvb81/5yXqvW6F4J/vyydgODpz1ZG865Xfe1yfHm+n5p+5/wH+uO/ZWO71kzuc+dwiK8Lwb2zZeujIUu89bvW+9NRRG+j45iLl39qs8E3wPdTUwRCzJffpoD4thAl7XYe9utbyzlHz4xW/UZ00ynGK27d/NqF+Ff4fmqKQIhByuAIBAKB+Gb5NpabEAgEAoFoBeTkEAgEAvHNgpxchyAydzsq2G169VnhRRpu+3Wf95H2ClF4c/M4ay1VFVXtHt4HnkqK8tHZhfl3qD/rodx7R3LnhVvtNPEgIveg87APYvf+K9TdnK9Lle6zM6WzI9B+n/o+EtSphK822dGnRnZYyKY+YUc/ZbNVj1u8YPzU4B+cTDWUFWna3Sb9dr/sw25Kci/O1Jei+Vz8xC1rE/6eO8BITVFRhWXp8mNEZsPnZN46ouzjoxjqMy83P2vBvWVGMvKqDDHMXuuftCh/1b3llgoOv2d88jkIcy+vG2OtqaKozLQcte5q/jckX9G1nNx/RmoH1/Y6esd/lsSYlS0h8l69KvnnO0Zk/Tl9xlXLA/ElvJxrU3l71p7uuDloT2H+q3SWeBAI3sQn/vujgerbgedLKPAiJCypk40H0vfpFITVec/C1rmN35XwgeMUvtjhseC+3YH40orsqFl1ezyXXeK990RkadTq9Q9l6Z9qecGTLZ7LEgaeTCqvKnq8RTdy5vy/c4lPZf4xotrihEu/Th65JvaDAChkJa/Wdu2DIm4jRU8296ICACmoyH5waulInxM5ok87TyLzyLQpYeob7hdWFsauUQuZOudUF1Ks+z/pWk6uy0jtkNzA8QyDhbebdG6It/sGKdluiBcC8CNnG7BY+uY9Hab+ld7ypONVXy279bEP9ky00abT5BWGHy0kARqil1n1WvuwIMBTj8VisQxmR/IBAESJAceTXDesGahBxRStfohKv7qQ3dajIHlPDs3sb6LN0lDXshyx+kKTXo2kwrSKIGaRocnMnVumjnQe2N3UasTmO6WkpGace0PyrIAsj9s7xZ5jxOGwTe2n7n8sjvtE5F1cMZitbWDZc5DPgWfVTcGg7i1lGyy601hewYPlJnoLbreRdUfEg6A+fJK8dPctkoPeiiGyj45hT/LPf7i+txaLxdIZsuuNqCPiQe3QiGmk4kbQJb7LioWWSaGhrzvqYr8XfR+y6tnBqX3Yevp62nq243+9X94UcrtVdSqAmhcHPW11dTi29qNWRuY2X269P7YOkXF0stOCM1Vj/9ztptziuijzxtUM+/mrhmlJUVTs5m2crhIVcqfJJpClUas3lS3c6cH81Lirnmrts2fPyoFMKUxWb6S7o0x60ltR25m30izlYfMG+hzMtP/t0CydlraioYJXp6xG+4f5ED7bPnrkqsuyc/7+ZeCnQ5SR5TFXnpjMWOVmJIfLczx/WWgRG3q545p3XYyu5eS6jNQOxhg9c4zgnL849pEo+czp591nTrehAsiOOfa2sDD71ASlD38ixbE0yjgzf8PrsaEpXF5t1dXZLAxAevDul5FzDTSmBL8rLCwsfHtsjCwAQHX8s3QjetbGUd2N9fXNB805Ht/WciXJi1o6/rf6+dcyCovzn+7QifCZ9WejG5dUmNahUCHn8mO97ZHXYp7G/CR3aN7ORyIJzWglMa44ybu4dOLvDQuvJaemptxaRu6e/HN0LQDUXF0/P5i17WnGm6eXV5Jx9zsovtER8SCQpTE16Aqf1FXA9edeiN89RKHP5sf5hYWFubd/tKS0XzyoXRoxAABk2dXAy4Khk5b4TrBMCwt50SEv9/3o+6QcXPBTpvul9Ox3GVEeeb8sOdQ4+ZWgTiVKO+K3JtM9MjX15f2/BmdHpzQ1Suv9sXVw9sKLiY/O75nbV/3DWRmGYdC8/xxXUVWuzUjLEwEAkKWXf9pctmivz2ccFVXsNnmlTy8lAACyPPp8DNbbwYLaVuatgal6nk56fuXIsmG6H7zoZCWvQpgbNr+PoYYqXa/nxC03Cxtjj6y/mxAbsn2KjfLnrH1gOAYEQbwvizAz7W0X+v7xf9G1nBx0HakdpWEzPOQvnb5cRgIInvufyRoya7JBm5IFNFWakGc55zdvM0XsU+IbFWXl/EfnHlltv5WU+eLU8LSfPNbfkzz65d8NvSTttmCikSyAlNbofY/Tw2dJDmXbFpi0w0Q3HQoAzhzuapd3/0EO3nozWjAl5V9/L+Iy1c3P01AagKrjNs8Ni4p4LADhm7v3awdMHK1JAZC39J7Uu8Oavu0WDwKZkUezcm8s7WjAwfaJB0mST5IIyb0UeAN39nRVNxs/wfrt2ZDHHfD/342+D1DMVkTnXFtqLg0gazawr0Z+dq4IQKI6VVVczGv22Ak28gAUpssU1+bIYO3pjxLLYujkYhx3aPu1XL6AlxT62+nXovr6egAgy678/Ev5or1T2tUNyapnuz1nXuvx+w43NUxy5u2DBM3eYxwGTjv1Iq8k/cJs8pjH9OPv2rvSiNEGuPZK/3vn2bQaQVVm1LY/H5D1/A5/2uxqdDknB19Baqfh9lIzDQaDwWBomC8Tr6yBTN9p3lo3T18oJvj3ToVUjvF1a1PNt1F8w7iH7ecMnDAZOVmq8aQlXtaqUhS13kv8hpXeupEsaeBEVpeU8NXU6c0hGmnqNNmOGXRMka7WaL4wBSVFqKqoBAnNKHEiV1daWlXgP9mkUXzDxCuIx68obQCigleloEpr/BmmoqrcCeIbXVI8qJ0aMUAWXgi6LT1isjMNo5iMn2iXGx4S137z8d3o+wDUJEf84jO0R/defewd54UUiosuQZ2KqORVkiqq4i+1WMso9u3ojxKh2q0M3Nfn+eKe+uyBy570GOcgTVOlYWTZ1Z9/4S3a463TjpdclH/lR6exp3R/v3naW58iOfP2FhHXGrc96K/1buY0KapqN98Ns/QeXI6tancuhnNP/D2ucPNAI4M+sy4ajnZSVu1AWbooXdHJ/etSO9KOm2JfJyQkJCS8vruxX5Mhodr4TLO8fyY85frpc9RJvk6fsSKISVE/S3wDUzMz16jklolHuyRJkBSqRPENTFFdXaaF+EZNfkpKfk2H1oPImvLyRuND8srKQYWmgktoRkkvBiavoa6i7xueJhbfeFfALfQfrwC4srJiTRmv0SERxQXNmnEYhomE4k/fZF3tp9WDurh4UDs1YoiciKCYuooIH10ajUbv9ctLYc654HuSP71I4LvR9xElH5g174bRlutPnjyKu3dwvHqTrlrr6lSYkrIS8MrE3+1ExQUfbPH63P7YBnJm3geiUwuL3r28spVdmsrsZsfEG+6HXcy4t8bByMDAwHjEvmRehK/FyP2pbbSYKDdizrC58aND7hzzNJZpM/P2FlBQ8OzyrcSmd4EUCIS4FLUDZp2qP3p71Jv8orzE6IOO9SmYTQ/JCmL/Mbqck/sqUjvSyuqN6htMdeX3X2lxo8nT+70O33DsupbPTPsOrt8AYHLysjVZ6QVCAFEtt6yWBACpPlO8VMJ/+e1hmYioeHbg0G3W8OEciYIXsv3HjxScPxLxrgFAVHJ7jYvj8qtt7sMCAID6ywtMDFz2frhpvf5ecGhWA0BD+tnwF7qOjrq4pGZs5GMJDxmHCaP44QcjshsAyNrU0z9M2RZTQQLVwqGPdExQRI4QiLL7f4W8FN+WwtTSqEhOLCQAyNJb4bdLCXhf8o9qCtAB8aDWa9o6mIy8HBSkZ9aQQDZUlFY2eY3PFw9qn0YM8TY8KE7L7ya3QiwHlHpwaMWFYPHyJtL3+QiyooxH0bexUqNAw9uIM9G8+jq+CECSOhWm3NvBPO1c8LMqEuozAk/dlOz5O4Io6dd+2s5/vK4hRWUPdq4P15g5o48UyIw+kVec1zjGSb+82IzmfjwxalFT//24yzQk/O4576V76Pk1Di0lvlvPvOmPrXWN1sCKo9a6e627klsPRMWrv7ac4jq5D/pUaNKPVG+I/BOjNPusfVBOkNWvj/x8rN5r9rBvJ77pl44A3S6WLVvWDiEC0ds9/aVlhxzMEZFk9cXpGlT9xTENJElWnHGTl7Ld+FJIkg0PfzShKk8OryFJsv76HCZVd+FtPkkKU3/tIyXjdLSAaPsORFmYJwOXH3IwuynaPv/SHAMWk8lk0mRxKUU6k8nU6rHmQQNJkkTZ36OUHH7P+FgSoCH5hLeNuoK8siqT3X/Tg4bGq3XJZxYONKKr0BgG/WYdi28RFl74apOdlIJnOL9lQR7umdrXWFdXT8ewm/vm6/nCtgtDkiTJP+shJ9Xtl9fC5nLE/mCk7bFuvXs/O1MdTc6ILTGlRBvN2HjjvMNDZWSGHWnZUkT5o30+9sb6hmxDIxvnJQGJtSRJkqQgK2xhP101dX2zftMP75qs0WNLgpAkSVFB1IoBxmy7gS5jpm7ct6SHlu/Veok1JYqOOSs6LN42e2gPS0NN3V6+/qn1729Mit4F+ZjSlNSYTE2blXebC/lRTduAKL29boi+srwijaFjNe1MTvPjEmXuGygnZb3+fdx2/jkvVctZm38Y0cfGWEvb2uPA82rxX2oSTi0YbKZvwDYytBjke+gJT9J7JEza3kuh59Y3LUrGO++jyfKJrCRJkn9rgY7SoH2tvDKtUf3q5LxBpnq6etp6lq4/hme0bBii9MpSO7qSqgaTqT/zfC0pyruwuK+BgY3jMFefX2/f2NJXQ6fXTzeqSLLm5bGZ/S2MOaZmHI71UL8zyXUkSZJkQ3rokmHWxiamphwTC8fph55WtNUzRBm7HeUoFAqOYRhOoVDkBu/PFpFkfdQMVt9daUKSJMm62KXGFOnm7tCOmgpST/nY6bN7DHAaNedIbORSS3XDITsfNZAkUXTt52FGDIYOp+eEnfvmmRo1vqZExcNd48zV1bTYtiPWHFnZhzY5gk+SbfXHjyGKT03QpNPpdLqyDE6RU6HT6Zqjjr4TkSTBi9s90VaTRlNjmbmsPP/2o6D+gvj1NvSpkS376j+7TMPDFcZUqjyN3oyWRwCXaDvzj40AP2qOHoNOp9NV5Ci4jDKdTmf22xovIMm65MDFQzkMJWWaBttx+t4HXIIkSWHy7iEsOp1OV1OSxqQUVOl0upbP2aYXuCHaT1dKb9Gdhvc3rHtzYkYfXVWamgZ7wPzTb2o/o9n+K3St2JVcLhcJEXwxBPeWmk3m/5lxeOhnyB5/Hcji467GZ0a9ueXXsY01/8+teRFTbA/2jbnh17S/qP68t+Z69u3nm+2+zLqN8Nmabh5lu18edvp2xsyt8/3UFNEF6VrLlcjDfWlI6EJjmi7EVxAP+n5Ub76fmiK6It/Kt0UEoqN8JfGg70f15vupKaIr0rWWKxEIBAKB6ES61nIlAoFAIBCdCHJyCAQCgfhm6RJOrvwUyMmCpg7oGMHJfAAA4WMwlQJpWZCVBXkV6DYOonK+ahEbwK87fKaUScA4oFKBigNOASoVbDdAp8fsqE+Afsqw6vH7K4JY6K4HOjqgKPPBdQQCgfie6RJODgCk+sCjd5CbCTO0mi7JQmAF8PlQkQW+AFMXwVeMik3kwauSz0085TwIhXBiFFj8DHwhvNzUmdt7hNXwLAzcxsOHmiAg1R+ev4PcTPBCG1QRCASiia7i5NpASg283aEhHXJFAACvT8IgczAxBZPusOU2iIMulcHWUaCtB3Z9YdM2MDKEGAGACLb1gknh4nxSdoLyRGgMqFQeB1PswYgDbFOYuh8qmtwnNwbG9wSOOZhyYMRqaBQiaYgGq17wsAA89YDFAoPZ0AElEbIAnGiw9QS4OUEvDth5wZsWwf3IfBgmC05HP7XBn4Cjk2HBGRj7J3ygCYJAIBCI1vgPODkBF46dAXVH4FCBfx8mroKxYZCWAnG7IHgKhJUAADz5FXY3QEw6xN8BrceQj0EbAYxJHiydCA0LITkVUm4BuRt+jgYAABEcWgYqmyAlCVJewuhyuJUOACA9GF5GgoEGBL+DwkJ4ewxkO1ANCuD1cOktnLwOT56DwyPYee2Dv6pqgKr8pzLBYeFFeHQe5vZtq4IIBAKBaKQLOzk+TGeCihIoGEO0JUT+BooA8eehZBjMsQIAoA8Cbx04FwNAwL1Y6DEB2NIAMuA1BeQwaOO8U/09uEwFP0+QBqDqwDw3iIoAAQBgoKwAT0LhyguokYH5R2G6aWdWCKPCeB+gYQAK0J0DeXnv520YE8LeQejUtoqNQCAQiPbShQ+Dy8LfRTA6AeyHg9NcsFYEACjlQlUUWBqIkwhqwJYLBAHlFaCiKvYQUjRQaNNX1JVCVQFMNoHGaKhEPTQMgwYAKRz8goH6K2ydCJOqYMgM2L0J2B0OzPwxGCg2zdUwDEgCSEBeDYFAIL4gXdjJAQCATHfYMRGmLofxkaCHgzoT1Nwh+eSHC4YE0JSBVyr2GbWF0ByKHMdA1LS1sa5GPHOS1wAVfQhPAPuPhD2pWuC3B/z2AC8Z1nrCAiO4Mqcrz3YRCAQC0RZd3oBj4LQB+j+F1RFAAti6AeManEgCAKjPgTVTILIAAId+DvA0FJLqgKyGY/4glhzBQZMJaYkgAIBqiLgivi7jAKP4cDACGgDIWjj9A2yLARKA5MGK4RCYAwBAY4O1JlBw8UwLkwPZGkgvAACo5UJtZ+/zJIvA0wgmB6DIkggEAtGZdHknB4BrwraVELUKblaATB8I2QFn3cHQGMxdoNgBBrIAAOxXwiIpGKgHZoMBGw4MsZozjFsN2qHQYwCMmQ3aziAlBCEAKMNvYYDvAY4RsK0hEMCtN2AAGA18POCIC5iagakVhBnDH1PETo5qBctGw0ZLUFEDG3d42ebBt8ZzcjMvQeI2kP3Mc3Ii4OYDt+ZTyUg4PREYDGBoQSAX9g8HBgNG/wntVbtHIBCI74QuEbuy/BTon4CEaNDrDJ/bEA0msyEwCRw+Wo389mmAOYageg529v7aJUEgEIguwH9gJodAIBAIRMfoKk5O8Aj66L0P64VoL+KwXkYQyP3aRUEgEIguw1dersTQDvovRhdYh0YgEIivzFc+QoAMMQKBQCC+HF1luRKBQCAQiE6nKzg5svzUaDlZVU0dHR2jiSfzCSDzjzjJU6lUKpWK4zje+C+F4UcLmuZ9FQFjFXQWRn+e8k0n0JAe9sMwDlOVRtfr6bUnjtf2/JMse/D75J56dJoq09RpeUSWAABA8HBNNyajGZqcDGdlnAAAgODG7prcS5emqEjTsh23/kqeCABAlLy9l6ycSlN6dfbCa43V5acGLx1upq6koMRgD5h9LL76w3tzL87Ul6L5XGyK/lzz6rivoxGDRlM3cpxzMqEO2r7evpp+bYSvNtnRp0bWt5GEyDsxwUhHR0dTVVZuzGnev1Y0BALRRSC/PkTZ36OUBuzNFn30l/prs1mac67X//O6sCTl8bOsCuJfKR4pTNxhr95vfWyJgKhNO+1pYDD7SoXk1ET5hWk6hl4BabWEkBu71l69/+5U4T+TXF9g2XvjMz5JkgQ31JNlMOnEmwqRqOrNkbGaDI/QMoIkBXErzdg/xDb8I3dB/KZuan1/upVXTzQU3lxup2i7MV7wPmPuxVl2Zhym2tRIPkmSJFl3f7mZpuue+AqRqDJ+tzPL6ufH9W1cb19Nvz6Clxtt1aZc4H86pShrT3+l0afKv3yZEAhEl6IrzOTag+DeajstlrZpN4exu56JFdXI/MPDrSYumjHIwqD36hOH5gy10jXzPVdMAoCo4MZm9+7GRhwTtvmg+acT697nROYfGSYr63S08FOTFVFyeGj6kKXLHRlUTM548o9TFCOD79ZJTF5zOziKMX21p7EcRqE7Ll/cPyHkXIaoZYrah1uX3R66c0V3GQAgG5jD1h/e4WOhjOOK5uPH2PHfZhYTAEQlr0pFjfbP5yOgWk/bv2/1YC1pTIo5wG0IMyfjXVPmZGnU6k1lC3d6MJu28wgeh0Twx6+cb6uM40q285ePrQgLeSaQeL2dNQUQ5V5a7WrHMTU345j2nLA9htvYlmR53N4p9hwjDodtaj91/+MmJaPaxIBFw8x1WEwGizNkoX9irbjcVfHHZg8wZ5uYstk2I1aef9s49Y1ZZGS76OD2aa5DHayNOEN+ui7WE6x5cdDTVleHY2s/amVkbvM5eJIbs318TzOOubkpx27E6ks5H7Q5AoH4TvmvOTkpxx3x+YU5kXNbnhunUvG3zzCfSxf8KPu3pky+cGkF81xIbB0QuadmewVpbLmflpr25oJH9mrvnS/eBx+hyKlqaKjKf7IFhGlJWdpmHHFoZaqJGbs2JTlPkgkV5SSnCUzM2WIlHEWOmWZmUlqLkCdExvE1gQYrVw1QAAAAXHPArPkuBhQgBeXJkdv/fNXNYxSbAiCq4FWWXv9poAlLVU3beuSqc1kNAABylm5LvHoqY0DU5j/8c/d5cPPoJw0AAGTp5Z82ly3a66PfXCOyPDWFa2RuIt5dJG1iZlCYnFpNSrrevpoCCGJ3LrpscyQ+JSk55fEfvVKiYgsIAJJ3cenE3xsWXktOTU25tYzcPfnn6FoA4D/cOOHHjDFhyQVFRW9O9I5b6PVrvBAAamPWTlxX4BX5Ji0l/dlBy+szZx7JJAAAp5Bpkfd0NkXeuh8fvQQ7tO5kqghAlHbEb02me2Rq6sv7fw3Ojk4RN60o4dCyoyqbHqUkJaW8PD26/NKtdOTlEAjEf87JtQ4GFMue3RQ0mBpUYytLBQ0WQ1ReVkWU34y4qzdlkTOTAiDLmT53aF7kxaQm04cxp4W9exc6VeNTpxgaamqEcgpyDeGT5KW7b0nAFRQotdU1kuZ/ZE11rbS8PLze3E1acXJEvZyCHL+65n3cLX7svv3v3JZ6an3Q8g1XZ2nI0i2nXjHZfHSBJRUAhHTbUQMcPPY9zOZmR6/VvDjdY9frpqITmbsd5RR0Bm0p9Tq6fQQdAwCy7MrPv5Qv2jtFt0W+ZG11DcjJyxSI56yyCnJQW11DSrrevpoCYIrK8vkxZ4JvJRTxlfuv+vtXNy0coP5exGWqm5+noTQAVcdtnhsWFfFYAILnZyNKnOb5WiliQKE7bo7OvL3SigogeH7hYvkwXx8TWQCM1m/mJPaTqNtcEgDDMKUhUz0MpAAoWra26oU5+QRAVVzMa/bYCTbyABSmyxRXlri+mLyyQuWTUP8rL3JrZGzmHz0y3RQp7iEQiG/EyQFgcvJyGI5jmIyMNGAYDgRBEuXc0vqkP1zZBgYGBgYGFn43iOoybrvH99KKitS6mjrcyMl39oTuaoKaGpGCkqKkhsMUlOQbamtFaj0nzJ41zAivra6TU1JstrfVN06ESXlM6y/3j3u4/FVSX/nu5o/U3cM9/soiAE2BDZsAAAW/SURBVJQG/xx4esfU7gwZihLHY/OiXslXb74T+0rcaNm9On7JqxODH84YsupuNZBlV3/+hbdoj7fOB8XC5BUVoK6WL28xytd3lIVcbU0tKCgp4JKut6+mANSe6yJPuQvPrR7JYer29tx6I18EQNaVllYV+E82aWx1E68gHr+itAEIbnGZMoPeFGpNWpmhJk8FAKKMy1PRUBdfx+nqdCgvLScAADA5xaaJNo5hJEGSQFTyKkkVVZo4brayqkpTArZfcMRc1eitE21YmrZjV0dktLUdBYFAfC98K06uNXA1DXVZu9W3M942klPITd0zWLq92VBNLY1zk1IauvnuO/jzCI20hFQlC0ttSQ1H0bMwk0l9k8Ucsebg3lm2tUlvCkyszJqOI/LvXbgh5zzS7n1UTX5ixO9/3ikiAKiK2r19Vk/VunP+bgVJcl9fv/aiRDyLIoUCAVClpYAouPvnb2cTBQC4DN3UdfXiQfmRlxIEDffDLmbcW+NgZGBgYDxiXzIvwtdi5P5UQtXMQiPjTar8gB8OHFjSXybldaaOlbkSYBKut6+mAACy7JErD198kl2SeXEe5aT3jxeqAJPXUFfR9w1PE7f6uwJuof94BcDpGmoVxSWCpnoXpyflVJIAOF29xXWCW8zFGBp0iWMIJWUl4JWVNzaMqLigpHmSTNUa5Lcn/H56SU7MBt2rvgtO5aO41QgE4lt2chht2ITBmaf3RxeLAIiKFwfnTjvwvHl8Txb5exoZTQ4o+dTGE4rJBC/LmD9+u18qImuST24/I5o4dUCznp3g4breBn3WxzUZb1AYPGVc5antQel1pLA4esfeR72njjcQN7Mo7fGzGtveNi0iR0uRKSE/Lvrlck49gKD4QcD5FF0rC0WMrL63y3Pi8qD0WpKszTi76dDrnm7OmjgmWxa722/FwRc8Asia1JCgu2BuZUiVGX0irziv0amkX15sRnM/nhi1iEOR6j15kvK5XYdfVhEE7+m+XVHa3l7dqAASrrdd048gcgN9XVdc4RIA0gyzXuYMCk7BAGQcJozihx+MyG4AIGtTT/8wZVtMBQlSPdzGMm7+eTKpFoCsfLbL3X5GYB4BINXdbTT95nH/9HoAouzuseBsx3HD1CStIWPKvR3M084FP6sioT4j8NRNsXQgybuyYvicwBwhAIXG7mGtKU3BUTgdBALxHztC0HD/p26aTCaTqSZPocirMplMluHcqLqiY84qE8P4ZGXAWJXRp8qJ2pAJKsOOFBAkKSq4+cv47kb6RmxD4x7j1kS+fb8ln8g7PFRGpjHZpxC8Pb9iOEddRYWubz/jz/jqFn9qiPbTldJbdKfFXn+C92ifd08dVRUa03zk2iu57w8Q1F+ZxdT/IC1JkvzU0OWuliyasoqKhsnAOcdeVBIkSZKCd5fWjLJiKSvRGPq9PH65lteYDcG9t3tKXwO6ioqKmk43t/WXc/5xPkEQv96G3nSEgCRr35ya62jIUFFhGA9eHJLW3JQSrrdR048hyu7/Nqm3qTHHzJTD6Tbqp4vvxGUsf7TPx95Y35BtaGTjvCQgsbYxffWrk/MGmerp6mnrWbr+GJ4hvilR+eLoTAeOoTHHyLjb2A1XGxusIfYHI32/6Ma2ari/zFh3/q16kiSJioe7xpmrq2mxbUesObKyD21yBJ8kSbLm5bGZ/S2MOaZmHI71UL8zyXUti4qOECAQ3yldQWqHLD81Rv+EU0L04k6R2kEgPoJ4u3eQzS3fd5E+tK9dFAQC8W+CvAoCgUAgvlm6ipMTPNrQR68prBcC0VmIw3rp9d34WPDp1AgE4lujKyxXIhAIBALxRegqMzkEAoFAIDod5OQQCAQC8c2CnBwCgUAgvlmQk0MgEAjENwtycggEAoH4ZkFODoFAIBDfLMjJIRAIBOKbBTk5BAKBQHyzICeHQCAQiG8W5OQQCAQC8c2CnBwCgUAgvln+Bx//bymnPFcMAAAAAElFTkSuQmCC;" vertex="1" parent="1">
          <mxGeometry x="290" y="360" width="588" height="221" as="geometry" />
        </mxCell>
        <mxCell id="uAF1CDrNPhGtqPdshCHt-3" value="" style="rounded=0;whiteSpace=wrap;html=1;opacity=30;fillColor=#ffe6cc;strokeColor=#d79b00;strokeWidth=2;" vertex="1" parent="1">
          <mxGeometry x="313" y="464" width="557" height="30" as="geometry" />
        </mxCell>
        <mxCell id="uAF1CDrNPhGtqPdshCHt-4" value="" style="rounded=0;whiteSpace=wrap;html=1;opacity=30;fillColor=#d5e8d4;strokeColor=#82b366;fillStyle=auto;strokeWidth=2;" vertex="1" parent="1">
          <mxGeometry x="313" y="496" width="557" height="44" as="geometry" />
        </mxCell>
        <mxCell id="uAF1CDrNPhGtqPdshCHt-5" value="&lt;font color=&quot;#ff8000&quot; size=&quot;1&quot; face=&quot;Courier New&quot;&gt;&lt;b style=&quot;font-size: 14px;&quot;&gt;1 PYTANIE DNS&lt;/b&gt;&lt;/font&gt;" style="text;html=1;strokeColor=none;fillColor=none;align=center;verticalAlign=middle;whiteSpace=wrap;rounded=0;" vertex="1" parent="1">
          <mxGeometry x="748" y="464" width="120" height="30" as="geometry" />
        </mxCell>
        <mxCell id="uAF1CDrNPhGtqPdshCHt-6" value="&lt;font color=&quot;#009900&quot; size=&quot;1&quot; face=&quot;Courier New&quot;&gt;&lt;b style=&quot;font-size: 14px;&quot;&gt;2 ODPOWIEDZI DNS&lt;/b&gt;&lt;/font&gt;" style="text;html=1;strokeColor=none;fillColor=none;align=center;verticalAlign=middle;whiteSpace=wrap;rounded=0;" vertex="1" parent="1">
          <mxGeometry x="727" y="540" width="142" height="30" as="geometry" />
        </mxCell>
      </root>
    </mxGraphModel>
  </diagram>
</mxfile>
